<?xml version="1.0" encoding="UTF-8" standalone="no"?>
<svg
   xmlns:dc="http://purl.org/dc/elements/1.1/"
   xmlns:cc="http://creativecommons.org/ns#"
   xmlns:rdf="http://www.w3.org/1999/02/22-rdf-syntax-ns#"
   xmlns:svg="http://www.w3.org/2000/svg"
   xmlns="http://www.w3.org/2000/svg"
   viewBox="0 0 1000 666.66669"
   height="666.66669"
   width="1000"
   xml:space="preserve"
   id="svg2"
   version="1.1"><metadata
     id="metadata8"><rdf:RDF><cc:Work
         rdf:about=""><dc:format>image/svg+xml</dc:format><dc:type
           rdf:resource="http://purl.org/dc/dcmitype/StillImage" /></cc:Work></rdf:RDF></metadata><defs
     id="defs6"><clipPath
       id="clipPath20"
       clipPathUnits="userSpaceOnUse"><path
         id="path18"
         d="M 0,500 H 750 V 0 H 0 Z" /></clipPath><clipPath
       id="clipPath28"
       clipPathUnits="userSpaceOnUse"><path
         id="path26"
         d="M 234.42,500.023 H 750 V 98.471 H 234.42 Z" /></clipPath><clipPath
       id="clipPath92"
       clipPathUnits="userSpaceOnUse"><path
         id="path90"
         d="m 555.759,272.723 h 24.311 v -27.32 h -24.311 z" /></clipPath><clipPath
       id="clipPath112"
       clipPathUnits="userSpaceOnUse"><path
         id="path110"
         d="m 601.926,222.538 h 16.908 V 98.6709 h -16.908 z" /></clipPath><clipPath
       id="clipPath128"
       clipPathUnits="userSpaceOnUse"><path
         id="path126"
         d="m 506.556,225.355 h 40.848 V 102.452 h -40.848 z" /></clipPath><clipPath
       id="clipPath204"
       clipPathUnits="userSpaceOnUse"><path
         id="path202"
         d="m 591.051,330.898 h 45.466 v -64.532 h -45.466 z" /></clipPath><clipPath
       id="clipPath224"
       clipPathUnits="userSpaceOnUse"><path
         id="path222"
         d="M 504.497,337.854 H 611.151 V 281.22 H 504.497 Z" /></clipPath><clipPath
       id="clipPath322"
       clipPathUnits="userSpaceOnUse"><path
         id="path320"
         d="m 661.047,150.723 h 69.707 v -15.954 h -69.707 z" /></clipPath><clipPath
       id="clipPath340"
       clipPathUnits="userSpaceOnUse"><path
         id="path338"
         d="M 344.201,201.496 H 523.56 V 98.5112 H 344.201 Z" /></clipPath><clipPath
       id="clipPath358"
       clipPathUnits="userSpaceOnUse"><path
         id="path356"
         d="M 467.669,109.471 H 618.753 V 98.6097 H 467.669 Z" /></clipPath><clipPath
       id="clipPath376"
       clipPathUnits="userSpaceOnUse"><path
         id="path374"
         d="M 337.02,201.496 H 516.379 V 98.5112 H 337.02 Z" /></clipPath><clipPath
       id="clipPath392"
       clipPathUnits="userSpaceOnUse"><path
         id="path390"
         d="m 413.235,163.468 h 26.929 v -26.929 h -26.929 z" /></clipPath><clipPath
       id="clipPath412"
       clipPathUnits="userSpaceOnUse"><path
         id="path410"
         d="M 269.648,484.011 H 741.966 V 230.105 H 269.648 Z" /></clipPath><clipPath
       id="clipPath416"
       clipPathUnits="userSpaceOnUse"><path
         id="path414"
         d="m 711.579,331.326 h 11.313 v -13.773 h -11.313 z" /></clipPath><clipPath
       id="clipPath420"
       clipPathUnits="userSpaceOnUse"><path
         id="path418"
         d="m 671.038,471.812 h 13.352 v -12.66 h -13.352 z" /></clipPath><clipPath
       id="clipPath424"
       clipPathUnits="userSpaceOnUse"><path
         id="path422"
         d="m 377.411,373.579 h 11.921 V 360.35 h -11.921 z" /></clipPath><clipPath
       id="clipPath428"
       clipPathUnits="userSpaceOnUse"><path
         id="path426"
         d="M 546.186,482.939 H 560.01 V 471.832 H 546.186 Z" /></clipPath><clipPath
       id="clipPath432"
       clipPathUnits="userSpaceOnUse"><path
         id="path430"
         d="m 694.914,430.851 h 22.298 v -22.297 h -22.298 z" /></clipPath><clipPath
       id="clipPath436"
       clipPathUnits="userSpaceOnUse"><path
         id="path434"
         d="m 464.91,478.686 h 22.297 V 456.389 H 464.91 Z" /></clipPath><clipPath
       id="clipPath440"
       clipPathUnits="userSpaceOnUse"><path
         id="path438"
         d="m 734.498,364.09 h 4.384 v -4.383 h -4.384 z" /></clipPath><clipPath
       id="clipPath444"
       clipPathUnits="userSpaceOnUse"><path
         id="path442"
         d="m 511.331,429.884 h 16.998 v -16.998 h -16.998 z" /></clipPath><clipPath
       id="clipPath448"
       clipPathUnits="userSpaceOnUse"><path
         id="path446"
         d="m 697.89,373.498 h 10.026 V 363.472 H 697.89 Z" /></clipPath><clipPath
       id="clipPath452"
       clipPathUnits="userSpaceOnUse"><path
         id="path450"
         d="m 661.399,393.613 h 10.649 v -10.648 h -10.649 z" /></clipPath><clipPath
       id="clipPath456"
       clipPathUnits="userSpaceOnUse"><path
         id="path454"
         d="m 736.69,297.462 h 5.276 v -5.276 h -5.276 z" /></clipPath><clipPath
       id="clipPath460"
       clipPathUnits="userSpaceOnUse"><path
         id="path458"
         d="m 726,471.959 h 5.275 v -5.276 H 726 Z" /></clipPath><clipPath
       id="clipPath464"
       clipPathUnits="userSpaceOnUse"><path
         id="path462"
         d="m 686.06,281.033 h 5.276 v -5.276 h -5.276 z" /></clipPath><clipPath
       id="clipPath468"
       clipPathUnits="userSpaceOnUse"><path
         id="path466"
         d="m 269.648,482.399 h 10.026 v -10.027 h -10.026 z" /></clipPath><clipPath
       id="clipPath472"
       clipPathUnits="userSpaceOnUse"><path
         id="path470"
         d="m 325.253,402.572 h 10.026 v -10.026 h -10.026 z" /></clipPath><clipPath
       id="clipPath476"
       clipPathUnits="userSpaceOnUse"><path
         id="path474"
         d="m 330.266,478.162 h 13.352 v -12.66 h -13.352 z" /></clipPath><clipPath
       id="clipPath480"
       clipPathUnits="userSpaceOnUse"><path
         id="path478"
         d="m 430.827,426.355 h 5.275 v -5.276 h -5.275 z" /></clipPath><clipPath
       id="clipPath484"
       clipPathUnits="userSpaceOnUse"><path
         id="path482"
         d="m 277.037,426.355 h 5.275 v -5.276 h -5.275 z" /></clipPath><clipPath
       id="clipPath488"
       clipPathUnits="userSpaceOnUse"><path
         id="path486"
         d="m 382.409,430.513 h 10.649 v -10.648 h -10.649 z" /></clipPath><clipPath
       id="clipPath492"
       clipPathUnits="userSpaceOnUse"><path
         id="path490"
         d="m 398.931,480.8 h 5.276 v -5.276 h -5.276 z" /></clipPath><clipPath
       id="clipPath496"
       clipPathUnits="userSpaceOnUse"><path
         id="path494"
         d="m 620.32,434.005 h 10.026 V 423.979 H 620.32 Z" /></clipPath><clipPath
       id="clipPath500"
       clipPathUnits="userSpaceOnUse"><path
         id="path498"
         d="m 557.269,383.243 h 5.276 v -5.276 h -5.276 z" /></clipPath><clipPath
       id="clipPath504"
       clipPathUnits="userSpaceOnUse"><path
         id="path502"
         d="m 497,356.959 h 5.275 v -5.276 H 497 Z" /></clipPath><clipPath
       id="clipPath508"
       clipPathUnits="userSpaceOnUse"><path
         id="path506"
         d="m 661.047,329.764 h 10.649 v -10.649 h -10.649 z" /></clipPath><clipPath
       id="clipPath512"
       clipPathUnits="userSpaceOnUse"><path
         id="path510"
         d="m 715.095,264.388 h 10.649 v -10.649 h -10.649 z" /></clipPath><clipPath
       id="clipPath516"
       clipPathUnits="userSpaceOnUse"><path
         id="path514"
         d="m 620.009,484.011 h 10.649 v -10.649 h -10.649 z" /></clipPath><clipPath
       id="clipPath520"
       clipPathUnits="userSpaceOnUse"><path
         id="path518"
         d="m 328.838,345.152 h 10.65 v -10.649 h -10.65 z" /></clipPath><clipPath
       id="clipPath524"
       clipPathUnits="userSpaceOnUse"><path
         id="path522"
         d="m 469.874,401.476 h 10.65 v -10.649 h -10.65 z" /></clipPath><clipPath
       id="clipPath528"
       clipPathUnits="userSpaceOnUse"><path
         id="path526"
         d="m 390.34,332.508 h 16.998 V 315.51 H 390.34 Z" /></clipPath><clipPath
       id="clipPath532"
       clipPathUnits="userSpaceOnUse"><path
         id="path530"
         d="m 282.12,381.813 h 9.524 v -9.524 h -9.524 z" /></clipPath><clipPath
       id="clipPath536"
       clipPathUnits="userSpaceOnUse"><path
         id="path534"
         d="m 577.352,428.201 h 8.499 v -8.499 h -8.499 z" /></clipPath><clipPath
       id="clipPath540"
       clipPathUnits="userSpaceOnUse"><path
         id="path538"
         d="m 682.837,247.103 h 16.998 v -16.998 h -16.998 z" /></clipPath><clipPath
       id="clipPath544"
       clipPathUnits="userSpaceOnUse"><path
         id="path542"
         d="m 431.353,390.827 h 8.499 v -8.499 h -8.499 z" /></clipPath><clipPath
       id="clipPath958"
       clipPathUnits="userSpaceOnUse"><path
         id="path956"
         d="M 0,500 H 750 V 0 H 0 Z" /></clipPath><clipPath
       id="clipPath1000"
       clipPathUnits="userSpaceOnUse"><path
         id="path998"
         d="M 0,500 H 750 V 0 H 0 Z" /></clipPath><clipPath
       id="clipPath1024"
       clipPathUnits="userSpaceOnUse"><path
         id="path1022"
         d="M 0,500 H 750 V 0 H 0 Z" /></clipPath></defs><g
     transform="matrix(1.3333333,0,0,-1.3333333,0,666.66667)"
     id="g10"><path
       id="path12"
       style="fill:#ffffff;fill-opacity:1;fill-rule:nonzero;stroke:none"
       d="M 0,0 H 750 V 500 H 0 Z" /><g
       id="g14"><g
         clip-path="url(#clipPath20)"
         id="g16"><g
           id="g22"><g
             id="g24" /><g
             id="g36"><g
               style="opacity:0.14999402"
               id="g34"
               clip-path="url(#clipPath28)"><g
                 id="g32"
                 transform="translate(750,499.9907)"><path
                   id="path30"
                   style="fill:#fb6a91;fill-opacity:1;fill-rule:nonzero;stroke:none"
                   d="m 0,0 c -165.187,0.011 -330.374,0.021 -495.562,0.032 -20.52,-34.408 -26.077,-86.924 -12.876,-124.718 9.062,-25.944 29.867,-48.816 56.614,-55.126 20.065,-4.733 43.977,-1.019 58.753,-15.394 19.045,-18.528 8.279,-52.96 23.533,-74.717 16.252,-23.182 52.337,-20.263 74.683,-37.648 27.748,-21.588 24.676,-65.056 44.708,-93.949 83.382,0.019 166.764,0.036 250.147,0.054 z" /></g></g></g></g><g
           transform="translate(466.4424,304.0786)"
           id="g38"><path
             id="path40"
             style="fill:#d4befc;fill-opacity:1;fill-rule:nonzero;stroke:none"
             d="m 0,0 c 4.354,0.921 8.202,-2.948 10.488,-6.766 2.979,-4.974 6.604,-18.771 7.241,-21.245 3.336,-3.921 6.529,-7.965 9.562,-12.128 -1.193,6.179 -0.875,12.649 0.957,18.671 0.466,1.532 1.371,3.304 2.972,3.366 2.058,0.078 2.913,-2.603 2.966,-4.663 0.18,-7.088 -1.438,-14.212 -4.648,-20.534 3.205,-4.568 6.256,-9.246 9.118,-14.034 1.473,-2.46 2.886,-4.956 4.272,-7.465 -1.253,5.657 -1.55,11.525 -0.845,17.276 0.208,1.698 0.522,3.441 1.46,4.873 0.937,1.431 2.644,2.483 4.326,2.175 1.601,-0.294 2.796,-1.743 3.246,-3.305 0.451,-1.564 0.292,-3.232 0.072,-4.844 -0.924,-6.752 -2.862,-13.365 -5.729,-19.547 0,0 8.267,-17.97 12.256,-27.813 -0.942,9.906 0.639,20.051 4.621,29.173 0.51,1.168 1.087,2.358 2.062,3.18 0.975,0.821 2.456,1.175 3.543,0.511 1.312,-0.799 1.506,-2.598 1.497,-4.134 -0.078,-11.48 -3.721,-22.907 -10.288,-32.322 0.619,-1.578 1.235,-3.157 1.83,-4.744 2.72,-7.265 5.19,-14.618 7.48,-22.025 -0.728,9.992 0.812,20.153 4.546,29.453 0.896,2.233 2.733,4.836 5.052,4.191 1.907,-0.53 2.524,-2.902 2.646,-4.878 0.765,-12.374 -4.781,-24.145 -10.282,-35.275 2.064,-7.036 3.98,-14.114 5.771,-21.219 1.333,-5.29 2.597,-10.595 3.821,-15.909 0.735,14.215 5.182,28.24 12.895,40.217 1.482,2.296 3.786,4.811 6.446,4.163 2.433,-0.606 3.457,-3.556 3.435,-6.058 -0.039,-5.647 -3.13,-10.757 -6.128,-15.542 -5.34,-8.52 -10.679,-17.033 -16.012,-25.546 2.423,-10.658 4.674,-21.347 6.899,-32.031 l -3.929,-0.789 c -1.97,10.17 -3.963,20.33 -6.098,30.453 -12.83,5.814 -25.065,12.91 -36.488,21.15 -2.755,1.99 -5.564,4.167 -7.016,7.242 -1.454,3.068 -1.069,7.281 1.735,9.2 3.023,2.055 7.14,0.639 10.367,-1.079 13.481,-7.158 24.368,-18.991 30.629,-32.894 -1.194,5.562 -2.433,11.112 -3.745,16.643 -1.422,5.998 -2.932,11.976 -4.544,17.924 -5.604,2.173 -24.935,9.777 -32.793,14.289 -1.75,1.006 -3.523,2.097 -4.711,3.73 -1.187,1.632 -1.662,3.944 -0.639,5.684 0.91,1.548 2.805,2.308 4.601,2.301 1.795,-0.007 3.521,-0.661 5.165,-1.38 11.012,-4.809 20.835,-11.038 27.291,-20.704 -2.621,9.368 -5.514,18.655 -8.797,27.808 -0.524,1.463 -1.071,2.918 -1.616,4.374 -9.08,0.531 -18.063,2.699 -26.382,6.375 -1.952,0.863 -4.097,2.091 -4.495,4.188 -0.384,2.016 1.16,4.018 3.066,4.78 1.907,0.761 4.056,0.549 6.068,0.145 8.249,-1.657 15.817,-6.454 20.874,-13.173 -3.703,9.67 -7.877,19.161 -12.58,28.384 -7.054,-0.692 -14.242,0.009 -21.018,2.091 -2.747,0.845 -6.002,2.943 -5.246,5.716 0.645,2.361 3.705,2.962 6.149,2.822 6.815,-0.388 13.449,-3.154 18.579,-7.653 -1.576,2.993 -3.203,5.959 -4.899,8.888 -2.877,4.967 -5.946,9.825 -9.196,14.561 -3.074,-0.606 -11.907,-2.308 -16.195,-2.727 -2.263,-0.221 -5.073,-0.169 -6.139,1.84 -0.798,1.503 -0.076,3.47 1.248,4.539 1.324,1.068 3.087,1.413 4.784,1.535 4.749,0.343 10.718,-1.008 15.144,-3.513 -3.366,4.804 -6.922,9.475 -10.685,13.974 -6.814,1.494 -13.11,5.303 -17.556,10.683 -2.23,2.701 -4.056,5.954 -4.091,9.457 C -5.646,-4.411 -3.428,-0.725 0,0" /></g><g
           transform="translate(397.2197,122.9014)"
           id="g42"><path
             id="path44"
             style="fill:#fc7ca3;fill-opacity:1;fill-rule:nonzero;stroke:none"
             d="m 0,0 c -9.862,11.814 -17.146,25.771 -21.198,40.617 -1.183,4.333 -2.076,9.038 -0.48,13.237 1.597,4.199 6.596,7.382 10.675,5.502 2.45,-1.128 3.885,-3.647 5.682,-5.659 1.797,-2.01 4.738,-3.653 7.1,-2.352 3.374,1.858 1.893,6.945 0.132,10.372 -6.482,12.62 -10.848,26.324 -12.858,40.369 -0.592,4.133 -0.945,8.531 0.816,12.317 1.761,3.785 6.35,6.559 10.193,4.928 2.768,-1.176 4.294,-4.142 5.273,-6.986 0.977,-2.844 1.696,-5.907 3.686,-8.163 1.989,-2.257 5.82,-3.266 7.975,-1.167 1.75,1.705 1.608,4.521 1.202,6.931 -2.126,12.605 -8.057,25.193 -5.157,37.643 2.919,12.53 15.642,21.998 28.482,21.195 12.841,-0.803 24.286,-11.782 25.621,-24.578 2.288,-21.919 -21.189,-39.3 -21.909,-61.326 3.376,2.858 6.84,5.768 10.975,7.343 4.135,1.574 9.141,1.584 12.657,-1.101 4.311,-3.292 5.13,-9.76 3.213,-14.834 -1.917,-5.074 -5.985,-9.007 -10.162,-12.468 -4.177,-3.46 -8.65,-6.696 -11.866,-11.064 -1.158,-1.574 -2.164,-3.655 -1.305,-5.411 1.116,-2.282 4.295,-2.228 6.717,-2.993 5.033,-1.592 7.393,-7.84 6.249,-12.994 C 60.567,24.206 56.828,20.042 52.897,16.518 40.023,4.975 23.949,-2.248 8.156,-9.291 Z" /></g><g
           transform="translate(442.1611,157.542)"
           id="g46"><path
             id="path48"
             style="fill:#46474c;fill-opacity:1;fill-rule:nonzero;stroke:none"
             d="m 0,0 c -13.103,-5.133 -25.549,-11.754 -37.13,-19.743 2.993,14.931 6.311,29.796 9.953,44.582 3.699,4.175 10.339,5.813 15.255,7.803 6.585,2.663 13.169,5.326 19.753,7.99 0.849,0.343 0.174,1.595 -0.666,1.254 -7.157,-2.895 -14.314,-5.79 -21.471,-8.685 -4.033,-1.632 -8.759,-3.023 -12.24,-5.829 3.131,12.573 6.494,25.089 10.093,37.537 4.688,6.199 10.109,11.744 16.196,16.581 0.718,0.571 -0.251,1.611 -0.963,1.044 -5.23,-4.155 -9.959,-8.845 -14.176,-14 0.276,0.939 0.545,1.88 0.823,2.818 3.53,11.92 7.28,23.775 11.23,35.564 0.291,0.867 -1.068,1.282 -1.358,0.416 -3.122,-9.315 -6.105,-18.675 -8.964,-28.072 -0.591,6.795 -1.903,13.485 -3.959,20.008 -0.273,0.866 -1.659,0.547 -1.383,-0.327 2.385,-7.565 3.791,-15.352 4.175,-23.276 0.003,-0.057 0.011,-0.11 0.023,-0.16 -0.992,-3.307 -1.962,-6.619 -2.922,-9.936 -0.069,-0.091 -0.141,-0.179 -0.21,-0.271 -0.179,-0.238 -0.169,-0.479 -0.061,-0.67 -3.743,-12.98 -7.237,-26.029 -10.476,-39.144 -0.107,-0.128 -0.219,-0.252 -0.322,-0.385 -6.534,12.958 -11.398,26.667 -14.487,40.851 -0.194,0.894 -1.577,0.57 -1.383,-0.326 3.217,-14.774 8.352,-29.055 15.274,-42.497 0.071,-0.138 0.167,-0.23 0.272,-0.289 -3.392,-13.898 -6.499,-27.864 -9.314,-41.892 -0.011,0.058 -0.027,0.116 -0.053,0.174 -3.655,8.314 -8.607,15.937 -14.705,22.664 -0.616,0.68 -1.658,-0.285 -1.044,-0.963 6.021,-6.643 10.886,-14.16 14.494,-22.367 0.255,-0.579 0.931,-0.437 1.204,-0.02 -0.156,-0.779 -0.317,-1.556 -0.472,-2.335 -2.395,-12.107 -4.567,-24.255 -6.537,-36.438 -0.145,-0.898 1.277,-0.932 1.42,-0.04 1.986,12.28 4.198,24.523 6.621,36.723 0.08,0.017 0.163,0.051 0.247,0.11 11.807,8.236 24.527,15.041 37.93,20.291 C 1.518,-0.922 0.844,0.33 0,0" /></g><g
           transform="translate(369.4526,109.958)"
           id="g50"><path
             id="path52"
             style="fill:#fc7ca3;fill-opacity:1;fill-rule:nonzero;stroke:none"
             d="m 0,0 c -11.106,23.092 -34.423,41.623 -59.868,44.639 -10.127,1.2 -21.044,0.543 -29.705,5.925 -1.112,-10.263 2.393,-20.7 8.381,-29.111 5.987,-8.41 14.311,-14.937 23.26,-20.084 8.904,-5.122 18.696,-9.024 28.935,-9.84 10.24,-0.816 20.981,1.692 28.924,8.204" /></g><g
           transform="translate(307.2944,124.2393)"
           id="g54"><path
             id="path56"
             style="fill:#46474c;fill-opacity:1;fill-rule:nonzero;stroke:none"
             d="M 0,0 C 3.55,3.045 7.795,5.089 12.365,5.967 10.92,6.37 9.485,6.803 8.064,7.282 7.958,7.27 7.847,7.3 7.75,7.389 5.479,8.167 3.246,9.064 1.072,10.155 -5.92,13.666 -11.983,18.682 -17.479,24.2 c -0.385,0.387 0.264,0.935 0.648,0.549 C -11.668,19.565 -5.993,14.827 0.5,11.397 2.522,10.329 4.607,9.419 6.737,8.625 3.914,12.287 2.087,16.598 1.436,21.2 1.36,21.741 2.194,21.9 2.271,21.357 2.97,16.418 5.031,11.857 8.278,8.073 10.678,7.247 13.127,6.554 15.6,5.942 20.607,4.705 25.656,3.658 30.578,2.096 32.275,1.558 33.966,0.989 35.646,0.39 c -2.893,2.93 -5.372,6.214 -7.41,9.804 -0.27,0.475 0.498,0.837 0.767,0.364 2.258,-3.976 5.077,-7.559 8.394,-10.704 0.046,-0.044 0.078,-0.091 0.097,-0.138 1.963,-0.734 3.907,-1.517 5.825,-2.36 0.12,0 0.216,-0.05 0.283,-0.127 3.083,-1.366 6.095,-2.884 8.998,-4.6 7.503,-4.437 14.139,-10.27 18.672,-17.777 0.282,-0.467 -0.486,-0.829 -0.768,-0.364 -6.257,10.366 -16.363,17.163 -27.292,21.988 -5.044,-1.046 -9.819,-3.007 -14.13,-5.833 -0.451,-0.295 -1.006,0.348 -0.549,0.648 4.103,2.689 8.595,4.63 13.355,5.759 -3.665,1.556 -7.407,2.902 -11.115,4.093 C 25.327,2.891 19.704,4.022 14.185,5.475 14.131,5.424 14.059,5.387 13.964,5.374 8.978,4.694 4.369,2.629 0.548,-0.648 0.134,-1.004 -0.416,-0.356 0,0" /></g><g
           transform="translate(385.1699,110.9463)"
           id="g58"><path
             id="path60"
             style="fill:#bed0f8;fill-opacity:1;fill-rule:nonzero;stroke:none"
             d="m 0,0 c -23.963,7.669 -50.034,25.304 -64.15,46.13 -2.525,3.724 -4.913,7.933 -4.571,12.418 0.343,4.485 4.664,8.874 8.984,7.618 3.545,-1.03 5.511,-5.187 9.077,-6.139 5.48,-1.464 9.647,6.206 7.547,11.475 -2.1,5.269 -7.486,8.298 -12.266,11.351 -10.284,6.565 -19.345,15.038 -26.585,24.858 -1.915,2.597 -3.765,5.455 -3.978,8.675 -0.214,3.218 1.814,6.802 5.015,7.202 2.82,0.352 5.771,-1.74 8.375,-0.605 2.835,1.237 2.93,5.429 1.326,8.074 -1.604,2.644 -4.292,4.465 -6.047,7.012 -5.254,7.618 0.87,19.368 9.916,21.315 9.046,1.947 18.451,-4.125 22.639,-12.377 2.14,-4.217 3.208,-8.957 5.738,-12.952 2.53,-3.995 7.288,-7.229 11.821,-5.881 2.365,0.703 4.226,2.512 6.44,3.598 5.306,2.607 11.997,0.58 16.291,-3.485 4.294,-4.063 6.627,-9.758 8.383,-15.403 C 14.477,79.06 0,0 0,0" /></g><g
           transform="translate(362.0488,214.8887)"
           id="g62"><path
             id="path64"
             style="fill:#46474c;fill-opacity:1;fill-rule:nonzero;stroke:none"
             d="m 0,0 c -1.875,-11.591 -2.924,-23.29 -3.147,-35.023 -3.243,14.663 -6.747,29.257 -13.336,42.846 -5.335,11.001 -12.62,21.038 -22.419,28.465 -0.505,0.382 -1.022,-0.458 -0.519,-0.839 9.339,-7.078 16.136,-16.324 21.28,-26.551 -5.752,2.421 -11.504,4.842 -17.255,7.263 -0.584,0.246 -0.867,-0.699 -0.286,-0.944 6.068,-2.554 12.135,-5.108 18.203,-7.661 4.92,-10.146 8.279,-21.19 10.904,-32.009 1.2,-4.942 2.292,-9.929 3.388,-14.922 -0.001,-0.408 -0.01,-0.816 -0.008,-1.225 0,-0.268 0.178,-0.429 0.382,-0.478 3.033,-13.787 6.188,-27.575 11.784,-40.504 -6.583,8.731 -14.229,16.571 -22.814,23.384 -0.495,0.392 -1.011,-0.448 -0.519,-0.84 9.664,-7.668 18.154,-16.691 25.219,-26.805 0.037,-0.053 0.082,-0.09 0.128,-0.123 0.544,-1.119 1.105,-2.231 1.692,-3.335 5.663,-10.641 13.319,-20.214 23.375,-26.991 0.525,-0.354 1.045,0.484 0.518,0.839 -19.492,13.14 -28.873,35.87 -34.521,57.823 -1.557,6.053 -2.904,12.177 -4.25,18.306 0.026,13.161 1.084,26.292 3.187,39.287 C 1.087,0.589 0.1,0.62 0,0" /></g><g
           transform="translate(667.4248,260.3452)"
           id="g66"><path
             id="path68"
             style="fill:#fc7ca3;fill-opacity:1;fill-rule:nonzero;stroke:none"
             d="m 0,0 c -6.409,-0.549 -12.63,-2.37 -18.283,-5.457 -3.24,-1.769 -6.686,-4.01 -9.591,-6.684 0.94,1.162 1.882,2.325 2.835,3.476 5.102,6.163 10.413,12.109 15.826,17.961 5.368,0.586 10.332,4.322 13.89,8.175 4.869,5.275 8.147,12.078 10.413,18.832 0.249,0.742 -0.787,1.213 -1.135,0.554 C 2.064,33.593 -8.442,23.144 -9.87,10.585 -15.796,4.285 -21.482,-2.252 -26.956,-8.9 c 1.562,3.583 2.542,7.399 2.514,11.313 -0.049,6.687 -2.463,13.072 -3.73,19.572 -0.132,0.677 -1.037,0.817 -1.332,0.175 -3.17,-6.893 -6.15,-14.274 -7.394,-21.802 -1.076,-6.503 0.914,-11.587 3.457,-17.335 -4.304,-5.51 -8.46,-11.153 -12.444,-16.922 4.354,12.149 -2.855,25.4 -9.465,35.548 -0.343,0.527 -1.083,0.311 -1.326,-0.168 -6.794,-13.406 -0.456,-28.37 8.185,-39.209 -5.159,-7.69 -10.014,-15.591 -14.507,-23.685 1.127,6.621 0.299,13.862 -1.286,20.155 -2.043,8.111 -5.877,15.487 -11.135,21.968 -0.361,0.446 -1.003,0.337 -1.249,-0.159 -3.704,-7.468 -2.77,-15.869 -0.168,-23.532 2.637,-7.764 6.257,-16.485 11.354,-22.997 -2.295,-4.301 -4.48,-8.656 -6.561,-13.057 0.022,-0.005 0.043,-0.004 0.066,-0.008 0.465,-0.112 0.806,-0.34 1.039,-0.631 1.955,4.137 4.004,8.23 6.148,12.274 0.087,0.025 0.176,0.066 0.264,0.13 0.129,0.096 0.258,0.19 0.387,0.286 15.459,-1.812 31.327,5.262 41.47,16.803 0.333,0.379 0.071,1.157 -0.476,1.154 -14.422,-0.068 -28.541,-6.117 -39.83,-15.006 3.217,5.886 6.624,11.667 10.207,17.331 1.664,2.63 3.367,5.235 5.102,7.818 0.149,-0.109 0.275,-0.195 0.397,-0.273 1.774,-2.2 4.732,-2.823 7.447,-3.077 3.441,-0.321 7.074,-0.354 10.465,0.381 6.512,1.414 11.77,5.74 16.753,9.917 0.476,0.399 0.259,1.099 -0.327,1.224 -11.394,2.428 -23.242,0.323 -33.103,-5.768 4.241,6.204 8.68,12.272 13.291,18.205 0.207,-0.116 0.466,-0.07 0.638,0.09 0.165,-0.113 0.376,-0.129 0.574,0.06 0.124,0.117 0.246,0.234 0.37,0.352 12.705,-1.667 25.685,5.978 31.839,16.892 C 0.933,-0.428 0.432,0.037 0,0" /></g><g
           transform="translate(448.8867,98.5117)"
           id="g70"><path
             id="path72"
             style="fill:#d4befc;fill-opacity:1;fill-rule:nonzero;stroke:none"
             d="m 0,0 h -154.717 c 4.362,6.121 11.512,10.119 19.602,10.119 3.859,0 7.492,-0.931 10.724,-2.545 5.259,11.938 17.188,20.277 31.07,20.277 5.86,0 11.372,-1.486 16.182,-4.099 4.29,13.819 17.176,23.855 32.407,23.855 18.738,0 33.927,-15.189 33.927,-33.926 0,-0.706 -0.028,-1.405 -0.071,-2.1 C -6.04,9.103 -2.183,5.001 0,0" /></g><g
           transform="translate(583.666,247.3945)"
           id="g74"><path
             id="path76"
             style="fill:#bed0f8;fill-opacity:1;fill-rule:nonzero;stroke:none"
             d="M 0,0 H 5.658 C 39.315,0 66.6,-27.284 66.6,-60.94 v -87.943 H -60.94 V -60.94 C -60.94,-27.284 -33.656,0 0,0" /></g><g
           transform="translate(477.7637,141.1211)"
           id="g78"><path
             id="path80"
             style="fill:#fcbc8e;fill-opacity:1;fill-rule:nonzero;stroke:none"
             d="m 0,0 21.937,1.477 c 0,0 -0.967,-5.777 0,-9.886 0,0 1.933,-7.011 -3.626,-7.494 0,0 -6.078,0.483 -8.236,-0.967 0,0 -64.04,-13.053 -100.782,-12.569 0,0 42.181,23.346 90.707,29.439" /></g><g
           transform="translate(593.6475,238.2842)"
           id="g82"><path
             id="path84"
             style="fill:#fccba9;fill-opacity:1;fill-rule:nonzero;stroke:none"
             d="m 0,0 c -2.355,1.235 -4.353,2.826 -6.063,5.207 -2.685,3.734 -4.946,7.522 -6.296,11.961 -2.356,7.745 -2.169,15.642 -2.132,23.639 10e-4,0.148 -2.828,5.21 -5.035,4.087 -2.015,-1.026 -6.439,-2.112 -9.099,-3.57 -3.519,-1.929 -6.434,-7.007 -8.761,-8.474 -1.598,-1.008 -0.12,-4.763 -0.106,-5.002 0.284,-4.865 1.831,-9.536 1.299,-14.467 -0.229,-2.118 -0.868,-4.162 -1.695,-6.118 -0.657,-1.551 -1.108,-3.114 -2.25,-4.402 -1.03,-1.163 -2.334,-1.906 -3.755,-2.422 -0.425,-0.154 -0.704,0.108 -0.766,-0.513 -0.063,-0.618 0.254,-1.456 0.406,-2.053 1.315,-5.149 4.67,-9.666 9.321,-12.266 10.429,-5.81 24.628,-2.489 31.78,6.907 1.092,1.434 2.02,2.992 2.766,4.633 0.014,0.031 0.019,0.06 0.031,0.09 C -0.219,-1.435 -0.219,-1.435 0,0" /></g><g
           id="g86"><g
             id="g88" /><g
             id="g100"><g
               style="opacity:0.5"
               id="g98"
               clip-path="url(#clipPath92)"><g
                 id="g96"
                 transform="translate(580.0703,260.6396)"><path
                   id="path94"
                   style="fill:#fccba9;fill-opacity:1;fill-rule:nonzero;stroke:none"
                   d="m 0,0 c -0.694,3.994 -0.886,8.023 -0.923,12.083 -0.839,-0.868 -1.678,-1.71 -2.443,-2.525 -2.812,-2.989 -5.798,-5.819 -9.06,-8.315 -3.132,-2.397 -6.541,-4.433 -10.183,-5.85 0.123,-1.441 0.152,-2.892 -0.007,-4.367 -0.229,-2.118 -0.867,-4.163 -1.695,-6.119 C -18.624,-16.251 -2.776,-10.329 0,0" /></g></g></g></g><g
           transform="translate(612.4414,99.5977)"
           id="g102"><path
             id="path104"
             style="fill:#fc7ca3;fill-opacity:1;fill-rule:nonzero;stroke:none"
             d="m 0,0 c -1.678,11.09 -3.649,22.15 -4.2,33.372 -0.511,10.41 -1.995,21.944 0.323,32.21 0.045,0.199 0.106,0.392 0.155,0.588 0.578,-3.067 1.195,-6.128 1.719,-9.169 0.584,-3.383 1.344,-6.732 1.939,-10.113 C 0.22,45.271 0.448,43.651 0.608,42.021 0.719,40.885 0.911,39.74 0.823,38.595 0.772,37.938 0.28,37.16 0.543,36.505 c 0.329,-0.82 1.34,-0.89 2.083,-1.011 1.101,-0.18 2.207,-0.321 3.317,-0.427 2.27,-0.214 4.553,-0.281 6.831,-0.224 4.577,0.114 9.131,0.718 13.619,1.603 1.966,0.388 3.922,0.829 5.878,1.272 0.483,0.109 0.988,0.229 1.358,0.556 0.757,0.669 0.243,1.846 -0.395,2.404 -0.227,0.198 -0.493,0.347 -0.743,0.516 -0.154,0.104 -0.303,0.215 -0.431,0.349 -0.323,0.336 -0.497,0.783 -0.654,1.222 -1.201,3.353 -1.727,6.755 -2.084,10.28 -0.369,3.643 -0.836,7.276 -1.234,10.917 -1.002,8.709 -2.105,17.412 -3.573,26.056 -1.485,8.725 -3.288,17.397 -5.812,25.885 -0.814,2.741 -1.628,5.525 -3,8.048 -0.941,1.733 -2.098,3.228 -3.759,4.301 -1.725,1.115 -3.627,1.932 -5.564,2.602 -6.781,2.349 -13.889,3.596 -20.667,5.947 -0.24,0.083 -0.481,0.168 -0.72,0.255 -1.815,0.657 -3.455,1.377 -4.942,2.286 0.004,-0.003 0.007,-0.006 0.011,-0.008 -4.875,-10.784 -17.754,-16.699 -27.968,-14.537 -3.969,0.84 -7.556,2.974 -10.009,6.239 -1.105,1.469 -1.948,3.11 -2.699,4.782 -0.038,0.084 -1.259,3.225 -1.407,3.572 0.605,0.236 0.195,0.047 -0.666,-0.264 -0.119,0.019 -0.234,-0.021 -0.342,-0.123 -2.042,-0.682 -4.299,-0.93 -6.339,-1.275 -4.318,-0.73 -8.754,-1.159 -12.882,-2.707 -9.435,-3.539 -14.159,-14.012 -18.607,-22.349 -5.594,-10.484 -10.414,-21.376 -15.42,-32.147 -4.832,-10.394 -8.832,-21.97 -15.724,-31.203 -0.333,-0.446 0.084,-1.057 0.564,-1.144 1.456,-4.64 6.386,-8.717 10.179,-11.376 4.105,-2.877 10.63,-6.608 15.792,-6.186 0.362,0.03 0.67,0.238 0.873,0.515 0.011,0.013 0.024,0.022 0.033,0.036 0.139,0.203 0.22,0.438 0.222,0.671 2.384,9.642 8.247,18.199 13.469,26.53 2.577,4.113 5.166,8.221 7.647,12.393 1.79,3.009 3.862,6.154 5.406,9.424 0.622,-0.575 1.208,-1.195 1.724,-1.914 1.545,-2.151 2.439,-4.652 2.978,-7.229 1.05,-5.02 0.804,-10.262 0.575,-15.35 -0.275,-6.108 -0.827,-12.206 -1.676,-18.261 -0.834,-5.952 -1.942,-11.866 -3.32,-17.715 C -78.813,14.285 -80.712,9.188 -82.328,3.881 -55.607,-1.019 -28.153,-2.254 0,0" /></g><g
           id="g106"><g
             id="g108" /><g
             id="g120"><g
               style="opacity:0.25"
               id="g118"
               clip-path="url(#clipPath112)"><g
                 id="g116"
                 transform="translate(616.3857,221.6816)"><path
                   id="path114"
                   style="fill:#fc7ca3;fill-opacity:1;fill-rule:nonzero;stroke:none"
                   d="m 0,0 c -3.081,-9.214 -4.645,-19.833 -5.259,-29.395 -0.36,-5.592 -1.678,-10.966 -3.95,-16.083 -0.6,-1.349 -1.187,-2.677 -1.739,-4.007 -0.189,-0.181 -0.306,-0.432 -0.308,-0.747 -1.146,-2.846 -2.086,-5.727 -2.502,-8.892 -1.323,-10.086 -0.554,-20.916 0.478,-30.997 1.111,-10.872 5.17,-21.748 7.91,-32.357 0.243,-0.943 1.564,-0.523 1.426,0.394 -1.678,11.09 -3.65,22.15 -4.201,33.372 -0.51,10.41 -1.995,21.944 0.324,32.21 0.049,0.214 0.113,0.421 0.167,0.632 0.646,-4.063 1.518,-8.119 2.212,-12.137 1.006,-5.832 2.522,-11.699 2.316,-17.63 -0.021,-0.619 0.823,-0.982 1.248,-0.516 3.201,3.515 0.491,10.669 -0.209,14.724 -1.193,6.908 -1.574,25.486 -0.662,27.85 1.684,4.362 2.428,8.915 2.921,13.541 0.508,4.747 0.529,9.508 0.697,14.275 0.185,5.222 0.909,10.264 1.569,15.433 C 2.622,1.12 0.42,1.254 0,0" /></g></g></g></g><g
           id="g122"><g
             id="g124" /><g
             id="g136"><g
               style="opacity:0.25"
               id="g134"
               clip-path="url(#clipPath128)"><g
                 id="g132"
                 transform="translate(546.8789,168.3311)"><path
                   id="path130"
                   style="fill:#fc7ca3;fill-opacity:1;fill-rule:nonzero;stroke:none"
                   d="m 0,0 c -0.504,4.041 -1.62,8.059 -4.11,11.349 -3.272,4.321 -9.42,5.834 -10.553,11.648 -2.154,11.061 2.829,22.674 -1.474,33.581 -0.256,0.648 -1.224,0.589 -1.252,-0.169 -0.22,-6.017 -0.629,-11.538 -2.03,-17.431 -1.122,-4.716 -2.564,-9.697 -2.267,-14.595 0.24,-3.932 1.056,-6.975 4.167,-9.406 0.763,-0.597 -10.123,-22.71 -12.701,-26.994 -4.36,-7.247 -10.206,-16.281 -10.101,-25.107 0.009,-0.807 1.24,-1.014 1.435,-0.194 2.271,9.526 7.949,17.943 13.089,26.16 2.536,4.054 5.085,8.1 7.547,12.199 2.013,3.35 4.387,6.825 5.904,10.494 0.657,-0.597 1.275,-1.243 1.817,-1.998 1.545,-2.15 2.438,-4.651 2.977,-7.228 1.05,-5.02 0.805,-10.262 0.575,-15.35 -0.275,-6.108 -0.827,-12.206 -1.675,-18.262 -0.834,-5.951 -1.943,-11.865 -3.321,-17.715 -1.278,-5.43 -3.176,-10.528 -4.793,-15.835 -0.255,-0.837 0.801,-1.336 1.393,-0.81 3.838,3.413 9.03,9.802 10.176,14.539 1.411,5.842 2.558,11.749 3.43,17.695 C -0.18,-22.605 1.362,-10.922 0,0" /></g></g></g></g><g
           transform="translate(585.374,284.3569)"
           id="g138"><path
             id="path140"
             style="fill:#fccba9;fill-opacity:1;fill-rule:nonzero;stroke:none"
             d="M 0,0 -12.999,16.01 -25.445,35.588 -32.551,39.787 -51.969,27.978 -69.026,9.734 c 0,0 1.764,-8.995 1.765,-9.18 0.016,-8.042 4.476,-16.083 9.582,-22.076 5.335,-6.261 12.83,-9.514 21.074,-8.845 6.996,0.568 13.363,3.674 18.876,7.893 3.261,2.495 6.248,5.326 9.058,8.315 2.438,2.591 5.624,5.436 7.19,8.655 C -1.062,-4.642 0,0 0,0" /></g><g
           transform="translate(591.0635,270.4204)"
           id="g142"><path
             id="path144"
             style="fill:#bed0f8;fill-opacity:1;fill-rule:nonzero;stroke:none"
             d="M 0,0 C 5.463,-6.459 18.187,-3.962 24.728,-1 34.1,3.245 41.7,11.519 45.453,21.062 49.404,31.111 48.369,43.061 41.031,51.338 37.847,54.93 33.649,57.583 29.09,59.057 24.896,60.412 18.811,61.412 14.785,59.221 13.975,58.78 -0.493,0.583 0,0" /></g><g
           transform="translate(548.2002,291.7993)"
           id="g146"><path
             id="path148"
             style="fill:#46474c;fill-opacity:1;fill-rule:nonzero;stroke:none"
             d="m 0,0 c 0.04,-0.051 0.085,-0.099 0.13,-0.146 1.722,-1.786 3.993,-2.944 6.504,-2.96 1.096,-0.007 2.207,0.13 3.272,0.389 1.052,0.255 2.191,0.643 2.978,1.421 0.179,0.176 0.395,0.515 0.358,0.778 -0.081,0.586 -1.022,0.144 -1.33,0.037 C 8.935,-1.517 5.75,-1.601 2.836,-0.321 2.176,-0.031 1.54,0.314 0.931,0.698 0.809,0.775 0.684,0.855 0.542,0.878 0.167,0.94 -0.26,0.536 -0.095,0.155 -0.071,0.099 -0.038,0.048 0,0" /></g><g
           transform="translate(547.918,289.2095)"
           id="g150"><path
             id="path152"
             style="fill:#46474c;fill-opacity:1;fill-rule:nonzero;stroke:none"
             d="M 0,0 C 0.438,-0.138 0.995,0.229 1.381,0.414 1.618,0.527 1.839,0.683 2.07,0.81 2.408,0.993 2.699,1.121 2.825,1.52 2.983,2.02 2.691,2.415 2.207,2.521 1.751,2.622 1.398,2.309 1.058,2.052 0.79,1.85 0.554,1.642 0.349,1.375 0.178,1.152 -0.592,0.187 0,0" /></g><g
           transform="translate(551.7266,286.3906)"
           id="g154"><path
             id="path156"
             style="fill:#46474c;fill-opacity:1;fill-rule:nonzero;stroke:none"
             d="M 0,0 C 0.432,0.157 0.649,0.788 0.843,1.169 0.962,1.404 1.042,1.662 1.148,1.903 1.305,2.254 1.458,2.533 1.314,2.926 1.136,3.419 0.663,3.554 0.214,3.344 -0.209,3.146 -0.297,2.683 -0.411,2.271 -0.501,1.948 -0.562,1.639 -0.562,1.302 -0.561,1.022 -0.584,-0.212 0,0" /></g><g
           transform="translate(556.8105,286.0376)"
           id="g158"><path
             id="path160"
             style="fill:#46474c;fill-opacity:1;fill-rule:nonzero;stroke:none"
             d="M 0,0 C 0.305,0.344 0.196,1.002 0.185,1.43 0.178,1.692 0.125,1.958 0.104,2.221 0.074,2.604 0.076,2.921 -0.237,3.199 -0.629,3.547 -1.109,3.441 -1.403,3.042 -1.682,2.666 -1.538,2.217 -1.442,1.801 -1.367,1.475 -1.274,1.174 -1.113,0.878 -0.979,0.631 -0.411,-0.465 0,0" /></g><g
           transform="translate(561.0059,287.4258)"
           id="g162"><path
             id="path164"
             style="fill:#46474c;fill-opacity:1;fill-rule:nonzero;stroke:none"
             d="M 0,0 C 0.193,0.417 -0.098,1.017 -0.23,1.423 -0.312,1.673 -0.438,1.912 -0.533,2.158 -0.672,2.517 -0.76,2.822 -1.14,2.999 -1.614,3.221 -2.045,2.982 -2.213,2.516 -2.372,2.077 -2.107,1.687 -1.896,1.315 -1.731,1.024 -1.557,0.762 -1.317,0.524 -1.119,0.326 -0.263,-0.563 0,0" /></g><g
           transform="translate(521.8789,293.9941)"
           id="g166"><path
             id="path168"
             style="fill:#46474c;fill-opacity:1;fill-rule:nonzero;stroke:none"
             d="m 0,0 c 0.039,-0.051 0.085,-0.099 0.13,-0.146 1.721,-1.786 3.992,-2.944 6.503,-2.96 1.097,-0.007 2.207,0.13 3.273,0.389 1.052,0.255 2.191,0.643 2.978,1.421 0.179,0.176 0.394,0.515 0.358,0.778 -0.081,0.586 -1.022,0.144 -1.331,0.037 C 8.935,-1.517 5.749,-1.601 2.836,-0.321 2.176,-0.031 1.54,0.314 0.93,0.698 0.809,0.775 0.684,0.855 0.541,0.878 0.166,0.94 -0.26,0.536 -0.096,0.155 -0.071,0.099 -0.038,0.048 0,0" /></g><g
           transform="translate(521.5967,291.4043)"
           id="g170"><path
             id="path172"
             style="fill:#46474c;fill-opacity:1;fill-rule:nonzero;stroke:none"
             d="M 0,0 C 0.437,-0.138 0.995,0.229 1.381,0.414 1.617,0.527 1.839,0.683 2.07,0.81 2.408,0.993 2.698,1.121 2.825,1.52 2.983,2.02 2.691,2.415 2.207,2.521 1.75,2.622 1.398,2.309 1.058,2.052 0.79,1.85 0.553,1.642 0.348,1.375 0.178,1.152 -0.593,0.187 0,0" /></g><g
           transform="translate(525.4043,288.5854)"
           id="g174"><path
             id="path176"
             style="fill:#46474c;fill-opacity:1;fill-rule:nonzero;stroke:none"
             d="M 0,0 C 0.432,0.157 0.65,0.788 0.844,1.169 0.962,1.404 1.042,1.662 1.149,1.903 1.306,2.254 1.458,2.533 1.315,2.926 1.137,3.419 0.664,3.554 0.215,3.344 -0.208,3.146 -0.297,2.683 -0.41,2.271 -0.5,1.948 -0.561,1.639 -0.561,1.302 -0.561,1.021 -0.583,-0.212 0,0" /></g><g
           transform="translate(530.4893,288.2324)"
           id="g178"><path
             id="path180"
             style="fill:#46474c;fill-opacity:1;fill-rule:nonzero;stroke:none"
             d="M 0,0 C 0.305,0.344 0.196,1.002 0.185,1.43 0.178,1.692 0.125,1.958 0.104,2.221 0.073,2.604 0.075,2.921 -0.237,3.199 -0.63,3.547 -1.109,3.441 -1.404,3.042 -1.682,2.666 -1.539,2.217 -1.443,1.801 -1.368,1.475 -1.274,1.174 -1.113,0.878 -0.979,0.631 -0.412,-0.465 0,0" /></g><g
           transform="translate(534.6836,289.6206)"
           id="g182"><path
             id="path184"
             style="fill:#46474c;fill-opacity:1;fill-rule:nonzero;stroke:none"
             d="M 0,0 C 0.194,0.417 -0.098,1.017 -0.23,1.423 -0.312,1.673 -0.438,1.912 -0.533,2.158 -0.671,2.517 -0.76,2.822 -1.14,2.999 -1.614,3.221 -2.044,2.982 -2.213,2.516 -2.372,2.077 -2.106,1.687 -1.896,1.315 -1.731,1.024 -1.556,0.762 -1.317,0.524 -1.119,0.326 -0.263,-0.563 0,0" /></g><g
           transform="translate(534.3262,280.251)"
           id="g186"><path
             id="path188"
             style="fill:#ff9e8b;fill-opacity:1;fill-rule:nonzero;stroke:none"
             d="m 0,0 c 0.034,-0.075 0.083,-0.149 0.132,-0.225 0.266,-0.414 0.667,-0.734 1.102,-0.956 1.014,-0.517 2.332,-0.725 3.453,-0.534 0.515,0.088 1.347,0.324 1.533,0.888 0.061,0.186 0.033,0.406 -0.095,0.554 C 6.001,-0.129 5.806,-0.068 5.618,-0.04 4.934,0.064 4.272,-0.187 3.593,-0.221 2.748,-0.264 1.874,-0.114 1.144,0.329 0.941,0.451 0.741,0.597 0.507,0.628 0.147,0.676 -0.159,0.345 0,0" /></g><g
           transform="translate(568.2041,280.3237)"
           id="g190"><path
             id="path192"
             style="fill:#ff9e8b;fill-opacity:1;fill-rule:nonzero;stroke:none"
             d="M 0,0 C -0.587,0.59 -1.367,1.028 -2.298,1.237 -4.806,1.799 -7.606,0.576 -8.732,-1.752 -9.661,-3.669 -9.401,-6.083 -7.584,-7.377 -4.828,-9.34 -0.191,-7.658 0.925,-4.573 1.548,-2.85 1.135,-1.141 0,0" /></g><g
           transform="translate(555.293,276.3115)"
           id="g194"><path
             id="path196"
             style="fill:#eafefc;fill-opacity:1;fill-rule:nonzero;stroke:none"
             d="m 0,0 c -0.21,-0.005 -0.42,-0.04 -0.591,-0.074 -0.628,-0.125 -1.28,-0.561 -1.867,-0.834 -0.834,-0.389 -1.646,-0.825 -2.495,-1.184 -2.245,-0.95 -4.45,-1.381 -6.882,-1.586 -4.502,-0.381 -8.334,0.419 -12.53,1.973 -1.278,0.474 -0.517,-2.22 -0.374,-2.623 0.454,-1.289 1.21,-2.458 2.127,-3.466 1.886,-2.079 4.466,-3.567 7.175,-4.276 0.92,-0.241 1.867,-0.391 2.819,-0.414 5.978,-0.144 11.592,4.326 13.319,9.954 0.166,0.541 0.276,1.079 0.27,1.647 C 0.969,-0.697 0.954,-0.502 0.856,-0.345 0.681,-0.063 0.34,0.008 0,0" /></g><g
           id="g198"><g
             id="g200" /><g
             id="g212"><g
               style="opacity:0.25"
               id="g210"
               clip-path="url(#clipPath204)"><g
                 id="g208"
                 transform="translate(636.5166,291.4824)"><path
                   id="path206"
                   style="fill:#bed0f8;fill-opacity:1;fill-rule:nonzero;stroke:none"
                   d="m 0,0 c -3.753,-9.543 -11.354,-17.817 -20.726,-22.062 -6.54,-2.962 -19.264,-5.459 -24.727,1 -0.164,0.194 1.335,6.796 3.435,15.523 0.698,-0.103 1.174,-0.141 1.327,-0.088 8.127,2.827 13.001,12.846 14.543,20.726 1.559,7.97 0.625,16.348 -2.251,23.923 0.88,0.223 1.812,0.347 2.765,0.394 0.954,0.046 11.613,-24.629 0.237,-47.558 C -15.302,-9.359 -7.074,-6.069 0,0" /></g></g></g></g><g
           transform="translate(607.291,332.5508)"
           id="g214"><path
             id="path216"
             style="fill:#bed0f8;fill-opacity:1;fill-rule:nonzero;stroke:none"
             d="m 0,0 c -3.668,8.437 -10.356,15.712 -19.454,18.131 -7.482,1.989 -17.559,2.494 -24.214,-2.142 -5.839,6.603 -15.857,8.648 -24.359,7.751 -9.665,-1.02 -18.558,-6.095 -24.875,-13.408 -15.711,-18.188 -11.481,-44.5 4.035,-61.43 1.148,-1.253 1.031,2.929 1.097,3.402 0.249,1.756 0.783,3.47 1.565,5.061 2.138,4.347 5.976,7.593 9.882,10.458 7.959,5.836 16.946,10.947 22.12,19.351 1.003,-13.066 10.184,-25.185 22.541,-29.547 0.506,-0.178 19.059,-4.718 20.196,-4.322 8.127,2.826 13.001,12.845 14.543,20.725 C 4.778,-17.275 3.52,-8.093 0,0" /></g><g
           id="g218"><g
             id="g220" /><g
             id="g232"><g
               style="opacity:0.25"
               id="g230"
               clip-path="url(#clipPath224)"><g
                 id="g228"
                 transform="translate(608.0742,330.0215)"><path
                   id="path226"
                   style="fill:#bed0f8;fill-opacity:1;fill-rule:nonzero;stroke:none"
                   d="m 0,0 c -0.607,-4.674 -1.229,-9.409 -3.015,-13.771 -1.785,-4.361 -4.896,-8.38 -9.229,-10.234 -4.171,-1.785 -8.944,-1.384 -13.387,-0.465 -11.666,2.414 -17.997,8.755 -23.568,19.671 -1.002,1.963 -1.822,4.02 -2.431,6.137 -0.344,1.192 -1.86,5.391 -1.181,6.494 -9.321,-15.149 -38.926,-38.872 -40.456,-37.341 -1.766,1.767 -3.214,3.79 -4.587,5.87 -2.332,3.537 -4.253,7.347 -5.689,11.335 -0.51,-12.956 4.716,-26.251 13.893,-36.264 1.148,-1.253 1.031,2.928 1.097,3.401 0.248,1.756 0.782,3.47 1.565,5.061 2.137,4.347 5.975,7.593 9.882,10.458 7.959,5.836 16.946,10.947 22.12,19.351 1.003,-13.065 10.184,-25.184 22.541,-29.547 0.506,-0.178 19.059,-4.718 20.196,-4.322 8.127,2.827 13.001,12.846 14.543,20.726 C 3.811,-15.691 3.166,-7.273 0,0" /></g></g></g></g><g
           transform="translate(551.5107,245.498)"
           id="g234"><path
             id="path236"
             style="fill:#46474c;fill-opacity:1;fill-rule:nonzero;stroke:none"
             d="m 0,0 c 3.986,0.425 8.06,2.707 11.582,4.52 3.882,1.998 7.536,4.38 10.786,7.302 3.137,2.821 5.932,6.017 8.361,9.464 2.125,3.014 5.234,7.065 5.218,10.894 -0.003,0.732 -0.899,1.079 -1.417,0.587 C 32.068,30.428 30.924,26.615 29.029,23.774 26.582,20.106 23.656,16.76 20.384,13.806 17.146,10.883 13.502,8.549 9.634,6.555 6.317,4.846 2.329,3.614 -0.449,1.087 -0.834,0.737 -0.553,-0.059 0,0" /></g><g
           transform="translate(558.4385,248.3057)"
           id="g238"><path
             id="path240"
             style="fill:#46474c;fill-opacity:1;fill-rule:nonzero;stroke:none"
             d="m 0,0 c 0.335,-2.546 -2.495,-5.017 -6.321,-5.52 -3.826,-0.502 -7.2,1.154 -7.533,3.699 -0.335,2.545 2.495,5.016 6.321,5.519 C -3.707,4.201 -0.334,2.545 0,0" /></g><g
           transform="translate(590.2197,297.7788)"
           id="g242"><path
             id="path244"
             style="fill:#46474c;fill-opacity:1;fill-rule:nonzero;stroke:none"
             d="M 0,0 C 0.884,9.297 -0.2,16.704 -2.176,22.529 -7.128,37.133 -21.725,46.505 -37.052,44.807 -52.662,43.078 -60.751,31.006 -60.751,31.006 v -0.048 c 0,0 0.706,0.525 1.999,1.276 20.221,11.741 45.864,-1.149 48.868,-24.337 0.238,-1.836 0.432,-3.812 0.569,-5.938 v -4.067 z" /></g><g
           transform="translate(600.0908,284.3569)"
           id="g246"><path
             id="path248"
             style="fill:#fc7ca3;fill-opacity:1;fill-rule:nonzero;stroke:none"
             d="m 0,0 c 0,-8.842 -6.589,-16.01 -14.717,-16.01 -8.129,0 -14.718,7.168 -14.718,16.01 0,8.842 6.589,16.01 14.718,16.01 C -6.589,16.01 0,8.842 0,0" /></g><g
           transform="translate(595.457,284.3569)"
           id="g250"><path
             id="path252"
             style="fill:#46474c;fill-opacity:1;fill-rule:nonzero;stroke:none"
             d="m 0,0 c 0,-6.058 -4.515,-10.969 -10.083,-10.969 -5.569,0 -10.084,4.911 -10.084,10.969 0,6.058 4.515,10.969 10.084,10.969 C -4.515,10.969 0,6.058 0,0" /></g><g
           transform="translate(641.1094,127.6357)"
           id="g254"><path
             id="path256"
             style="fill:#fccba9;fill-opacity:1;fill-rule:nonzero;stroke:none"
             d="M 0,0 C -0.055,0.231 -0.102,0.47 -0.144,0.711 -0.156,0.781 -0.168,0.853 -0.18,0.923 -0.209,1.106 -0.236,1.292 -0.26,1.479 -0.269,1.546 -0.277,1.612 -0.285,1.68 -0.313,1.929 -0.339,2.178 -0.358,2.43 -0.36,2.448 -0.36,2.467 -0.362,2.485 -0.38,2.721 -0.393,2.956 -0.403,3.191 -0.406,3.264 -0.409,3.335 -0.411,3.407 -0.418,3.604 -0.423,3.799 -0.426,3.993 l -0.003,0.182 c -0.002,0.249 -0.001,0.496 0.004,0.739 0,0.036 0.001,0.07 0.002,0.107 0.005,0.208 0.011,0.413 0.019,0.615 0.003,0.071 0.006,0.141 0.008,0.212 0.008,0.173 0.017,0.343 0.027,0.51 0.003,0.061 0.007,0.121 0.01,0.181 0.013,0.211 0.028,0.417 0.044,0.614 0.004,0.064 0.01,0.122 0.015,0.184 0.012,0.136 0.024,0.268 0.035,0.396 0.008,0.08 0.015,0.157 0.023,0.234 0.011,0.102 0.02,0.2 0.031,0.296 0.008,0.073 0.015,0.147 0.023,0.216 0.015,0.13 0.029,0.254 0.043,0.37 0,0.002 0.001,0.004 0.001,0.005 -0.71,-0.152 -1.419,-0.305 -2.131,-0.446 -4.488,-0.886 -9.042,-1.489 -13.619,-1.603 -2.278,-0.057 -4.561,0.009 -6.831,0.224 -1.11,0.106 -2.216,0.247 -3.317,0.427 -0.365,0.06 -0.794,0.107 -1.175,0.237 -0.001,0 -0.002,-10e-4 -0.003,-10e-4 C -29.028,7.431 -30.824,7.15 -32.609,6.858 -32.722,6.84 -32.836,6.824 -32.947,6.806 V 6.803 c -43.722,-7.215 -79.697,-22.999 -79.697,-22.999 -10.394,9.185 -36.258,-0.967 -36.258,-0.967 v -3.881 l 36.258,0.014 c 24.024,-0.317 59.714,5.154 81.547,8.979 0.006,10e-4 0.012,0.003 0.018,0.004 0.248,0.043 0.493,0.086 0.738,0.129 0.188,0.033 0.375,0.066 0.561,0.1 0.257,0.045 0.512,0.089 0.764,0.134 0.111,0.02 0.218,0.039 0.328,0.059 0.502,0.089 0.996,0.178 1.481,0.265 0.132,0.023 0.264,0.047 0.395,0.07 0.257,0.047 0.512,0.093 0.764,0.139 0.098,0.017 0.194,0.035 0.291,0.052 0.494,0.089 0.979,0.177 1.451,0.264 0.087,0.016 0.174,0.031 0.261,0.048 0.257,0.047 0.511,0.094 0.761,0.14 0.071,0.012 0.142,0.026 0.213,0.039 0.805,0.148 1.576,0.291 2.306,0.427 0.045,0.009 0.09,0.017 0.135,0.026 0.712,0.133 1.386,0.259 2.022,0.38 0.081,0.015 0.163,0.031 0.243,0.046 0.192,0.037 0.384,0.073 0.569,0.109 0.008,10e-4 0.016,0.003 0.024,0.004 0.392,0.075 0.765,0.146 1.123,0.215 0.064,0.012 0.129,0.025 0.192,0.037 0.159,0.031 0.315,0.06 0.467,0.09 0.056,0.011 0.11,0.021 0.166,0.032 0.495,0.096 0.949,0.184 1.357,0.264 0.044,0.008 0.086,0.017 0.128,0.025 0.237,0.047 0.458,0.09 0.662,0.131 0.031,0.006 0.063,0.011 0.093,0.017 0.095,0.019 0.185,0.037 0.272,0.054 0.051,0.011 0.1,0.021 0.148,0.029 0.251,0.05 0.465,0.093 0.644,0.129 0.075,0.015 0.147,0.03 0.208,0.041 0.026,0.005 0.052,0.011 0.076,0.016 0.024,0.005 0.044,0.009 0.066,0.013 0.137,0.028 0.23,0.046 0.274,0.055 0.016,0.004 0.034,0.007 0.034,0.007 2.158,1.45 8.236,0.967 8.236,0.967 C 1.934,-7.011 0,0 0,0" /></g><g
           transform="translate(645.3018,377.5112)"
           id="g258"><path
             id="path260"
             style="fill:#fc7ca3;fill-opacity:1;fill-rule:nonzero;stroke:none"
             d="m 0,0 c 0,13.235 -12.236,23.964 -27.331,23.964 -15.094,0 -27.33,-10.729 -27.33,-23.964 0,-13.235 12.236,-23.965 27.33,-23.965 1.346,0 2.667,0.089 3.961,0.254 -0.907,-5.91 -3.961,-8.648 -3.961,-8.648 C 0,-23.965 0,-3.262 0,0" /></g><g
           transform="translate(607.6875,378.1099)"
           id="g262"><path
             id="path264"
             style="fill:#ffffff;fill-opacity:1;fill-rule:nonzero;stroke:none"
             d="m 0,0 c 0,-2.834 -2.298,-5.133 -5.133,-5.133 -2.835,0 -5.133,2.299 -5.133,5.133 0,2.835 2.298,5.133 5.133,5.133 C -2.298,5.133 0,2.835 0,0" /></g><g
           transform="translate(622.3154,378.1099)"
           id="g266"><path
             id="path268"
             style="fill:#ffffff;fill-opacity:1;fill-rule:nonzero;stroke:none"
             d="m 0,0 c 0,-2.834 -2.298,-5.133 -5.133,-5.133 -2.834,0 -5.133,2.299 -5.133,5.133 0,2.835 2.299,5.133 5.133,5.133 C -2.298,5.133 0,2.835 0,0" /></g><g
           transform="translate(636.9443,378.1099)"
           id="g270"><path
             id="path272"
             style="fill:#ffffff;fill-opacity:1;fill-rule:nonzero;stroke:none"
             d="m 0,0 c 0,-2.834 -2.298,-5.133 -5.133,-5.133 -2.835,0 -5.133,2.299 -5.133,5.133 0,2.835 2.298,5.133 5.133,5.133 C -2.298,5.133 0,2.835 0,0" /></g><g
           transform="translate(401.5684,281.0156)"
           id="g274"><path
             id="path276"
             style="fill:#fc7ca3;fill-opacity:1;fill-rule:nonzero;stroke:none"
             d="m 0,0 c 0,13.235 -12.236,23.965 -27.331,23.965 -15.094,0 -27.33,-10.73 -27.33,-23.965 0,-13.235 12.236,-23.964 27.33,-23.964 1.346,0 2.668,0.089 3.961,0.253 -0.906,-5.909 -3.961,-8.648 -3.961,-8.648 C 0,-23.964 0,-3.261 0,0" /></g><g
           transform="translate(369.8208,274.043)"
           id="g278"><path
             id="path280"
             style="fill:#ffffff;fill-opacity:1;fill-rule:nonzero;stroke:none"
             d="M 0,0 C 0,2.088 1.683,3.677 4.113,3.677 6.543,3.677 8.226,2.088 8.226,0 8.226,-2.057 6.543,-3.739 4.113,-3.739 1.683,-3.739 0,-2.057 0,0 m 4.923,11.716 c 0,0.966 -0.934,1.465 -2.087,1.465 -1.34,0 -2.586,-0.81 -3.241,-2.119 l -5.546,2.773 c 1.589,2.991 4.736,5.048 9.722,5.048 4.892,0 8.537,-2.057 8.537,-5.952 0,-4.767 -4.985,-5.608 -4.985,-8.008 H 0.904 c 0,3.771 4.019,4.892 4.019,6.793" /></g><g
           transform="translate(475.1992,342.5947)"
           id="g282"><path
             id="path284"
             style="fill:#bed0f8;fill-opacity:1;fill-rule:nonzero;stroke:none"
             d="m 0,0 c 0,13.235 -12.236,23.964 -27.331,23.964 -15.095,0 -27.331,-10.729 -27.331,-23.964 0,-13.235 12.236,-23.965 27.331,-23.965 1.346,0 2.667,0.089 3.961,0.254 -0.907,-5.91 -3.961,-8.648 -3.961,-8.648 C 0,-23.965 0,-3.262 0,0" /></g><g
           transform="translate(430.8262,337.2822)"
           id="g286"><path
             id="path288"
             style="fill:none;stroke:#ffffff;stroke-width:5.32299995;stroke-linecap:round;stroke-linejoin:miter;stroke-miterlimit:10;stroke-dasharray:none;stroke-opacity:1"
             d="M 0,0 H 34.084" /></g><g
           transform="translate(430.8262,346.7095)"
           id="g290"><path
             id="path292"
             style="fill:none;stroke:#ffffff;stroke-width:5.32299995;stroke-linecap:round;stroke-linejoin:miter;stroke-miterlimit:10;stroke-dasharray:none;stroke-opacity:1"
             d="M 0,0 H 34.084" /></g><g
           transform="translate(698.7178,137.4844)"
           id="g294"><path
             id="path296"
             style="fill:#fc7ca3;fill-opacity:1;fill-rule:nonzero;stroke:none"
             d="m 0,0 c -12.877,4.121 -26.888,13.598 -34.474,24.79 -1.356,2.001 -2.639,4.263 -2.456,6.673 0.184,2.41 2.507,4.768 4.828,4.094 1.905,-0.554 2.962,-2.787 4.878,-3.299 2.945,-0.787 5.184,3.335 4.055,6.167 -1.128,2.831 -4.022,4.459 -6.591,6.098 -5.526,3.529 -10.395,8.082 -14.287,13.359 -1.028,1.395 -2.022,2.931 -2.137,4.662 -0.115,1.729 0.975,3.656 2.695,3.871 1.515,0.189 3.101,-0.936 4.501,-0.325 1.523,0.664 1.574,2.917 0.713,4.338 -0.863,1.421 -2.307,2.4 -3.25,3.768 -2.824,4.094 0.467,10.408 5.329,11.454 4.861,1.047 9.915,-2.216 12.165,-6.65 1.15,-2.267 1.724,-4.814 3.084,-6.961 1.359,-2.147 3.917,-3.884 6.352,-3.16 1.271,0.378 2.271,1.35 3.461,1.934 2.852,1.4 6.447,0.311 8.755,-1.874 2.307,-2.183 3.561,-5.243 4.505,-8.277 C 7.779,42.485 0,0 0,0" /></g><g
           transform="translate(686.293,193.3418)"
           id="g298"><path
             id="path300"
             style="fill:#46474c;fill-opacity:1;fill-rule:nonzero;stroke:none"
             d="m 0,0 c -1.008,-6.229 -1.571,-12.517 -1.691,-18.821 -1.744,7.88 -3.625,15.722 -7.167,23.025 -2.867,5.911 -6.782,11.306 -12.047,15.296 -0.272,0.206 -0.55,-0.245 -0.28,-0.45 5.019,-3.804 8.672,-8.773 11.436,-14.268 l -9.272,3.903 c -0.314,0.131 -0.466,-0.376 -0.154,-0.508 3.261,-1.372 6.521,-2.744 9.781,-4.117 2.645,-5.452 4.45,-11.386 5.861,-17.201 0.644,-2.656 1.231,-5.336 1.82,-8.018 0,-0.22 -0.005,-0.44 -0.005,-0.659 10e-4,-0.144 0.097,-0.231 0.206,-0.257 1.63,-7.408 3.325,-14.819 6.332,-21.767 -3.537,4.693 -7.645,8.905 -12.258,12.567 -0.267,0.212 -0.544,-0.241 -0.28,-0.452 5.194,-4.12 9.756,-8.969 13.552,-14.404 0.02,-0.028 0.045,-0.048 0.069,-0.066 0.292,-0.601 0.594,-1.199 0.909,-1.792 3.043,-5.719 7.158,-10.863 12.561,-14.505 0.283,-0.191 0.563,0.261 0.279,0.451 -10.475,7.061 -15.516,19.275 -18.551,31.073 -0.836,3.253 -1.561,6.544 -2.284,9.837 0.014,7.073 0.582,14.13 1.712,21.112 C 0.584,0.316 0.054,0.333 0,0" /></g><g
           transform="translate(700.0684,147.876)"
           id="g302"><path
             id="path304"
             style="fill:#bed0f8;fill-opacity:1;fill-rule:nonzero;stroke:none"
             d="m 0,0 c -5.3,6.349 -9.214,13.849 -11.392,21.827 -0.635,2.329 -1.116,4.857 -0.257,7.113 0.858,2.256 3.544,3.967 5.736,2.957 1.316,-0.607 2.088,-1.96 3.053,-3.041 0.965,-1.081 2.547,-1.963 3.816,-1.264 1.813,0.999 1.017,3.732 0.071,5.574 -3.484,6.781 -5.83,14.147 -6.91,21.693 -0.318,2.222 -0.508,4.585 0.439,6.62 0.946,2.034 3.412,3.524 5.477,2.648 1.488,-0.632 2.308,-2.226 2.833,-3.754 0.527,-1.529 0.912,-3.175 1.982,-4.388 1.068,-1.213 3.128,-1.755 4.285,-0.627 0.94,0.916 0.864,2.431 0.646,3.725 -1.142,6.774 -4.33,13.539 -2.771,20.23 1.568,6.733 8.405,11.821 15.305,11.389 6.901,-0.431 13.051,-6.331 13.769,-13.208 1.23,-11.778 -11.387,-21.119 -11.773,-32.956 1.814,1.536 3.675,3.101 5.897,3.946 2.222,0.846 4.912,0.852 6.802,-0.591 2.316,-1.769 2.757,-5.246 1.726,-7.972 -1.03,-2.727 -3.215,-4.84 -5.461,-6.699 -2.244,-1.86 -4.648,-3.599 -6.377,-5.947 -0.622,-0.845 -1.163,-1.964 -0.701,-2.908 0.601,-1.225 2.309,-1.196 3.611,-1.608 2.704,-0.856 3.972,-4.213 3.357,-6.983 -0.615,-2.768 -2.625,-5.005 -4.737,-6.9 C 21.508,2.674 12.87,-1.208 4.383,-4.993 Z" /></g><g
           transform="translate(724.2187,166.4912)"
           id="g306"><path
             id="path308"
             style="fill:#46474c;fill-opacity:1;fill-rule:nonzero;stroke:none"
             d="m 0,0 c -7.041,-2.758 -13.729,-6.316 -19.953,-10.609 1.608,8.023 3.391,16.011 5.349,23.957 1.988,2.244 5.556,3.125 8.198,4.193 3.538,1.432 7.076,2.862 10.615,4.294 0.455,0.185 0.093,0.856 -0.358,0.674 -3.847,-1.556 -7.693,-3.112 -11.538,-4.667 -2.167,-0.877 -4.708,-1.625 -6.579,-3.133 1.684,6.757 3.491,13.482 5.424,20.172 2.52,3.332 5.434,6.311 8.704,8.911 0.386,0.306 -0.135,0.865 -0.517,0.562 -2.811,-2.235 -5.352,-4.754 -7.618,-7.525 0.148,0.505 0.293,1.011 0.442,1.515 1.896,6.406 3.912,12.776 6.035,19.111 0.156,0.466 -0.574,0.69 -0.73,0.224 -1.678,-5.006 -3.281,-10.035 -4.817,-15.085 -0.317,3.65 -1.023,7.246 -2.128,10.751 -0.146,0.466 -0.891,0.295 -0.743,-0.176 1.281,-4.065 2.037,-8.249 2.244,-12.508 10e-4,-0.03 0.006,-0.058 0.013,-0.086 -0.534,-1.776 -1.056,-3.556 -1.571,-5.339 -0.037,-0.048 -0.076,-0.096 -0.114,-0.146 -0.095,-0.128 -0.09,-0.257 -0.032,-0.36 -2.012,-6.974 -3.889,-13.988 -5.629,-21.035 -0.058,-0.069 -0.118,-0.135 -0.174,-0.208 -3.51,6.964 -6.125,14.331 -7.785,21.954 -0.104,0.48 -0.847,0.305 -0.743,-0.175 1.729,-7.94 4.488,-15.614 8.208,-22.838 0.038,-0.074 0.09,-0.123 0.147,-0.156 -1.824,-7.467 -3.494,-14.973 -5.006,-22.511 -0.006,0.031 -0.015,0.062 -0.029,0.093 -1.963,4.468 -4.625,8.565 -7.902,12.18 -0.33,0.364 -0.891,-0.154 -0.56,-0.517 3.235,-3.571 5.849,-7.61 7.789,-12.021 0.136,-0.31 0.5,-0.235 0.646,-0.011 -0.084,-0.418 -0.171,-0.836 -0.253,-1.255 -1.287,-6.505 -2.455,-13.034 -3.514,-19.581 -0.078,-0.482 0.687,-0.501 0.764,-0.021 1.068,6.6 2.256,13.179 3.558,19.734 0.043,0.01 0.088,0.028 0.133,0.06 6.344,4.426 13.179,8.083 20.382,10.903 C 0.816,-0.495 0.453,0.178 0,0" /></g><g
           transform="translate(695.9004,150.7227)"
           id="g310"><path
             id="path312"
             style="fill:#d4befc;fill-opacity:1;fill-rule:nonzero;stroke:none"
             d="m 0,0 h -30.095 l 13.779,-52.211 H 0 16.316 L 30.095,0 Z" /></g><path
           id="path314"
           style="fill:#d4befc;fill-opacity:1;fill-rule:nonzero;stroke:none"
           d="m 730.754,134.77 h -69.707 v 15.953 h 69.707 z" /><g
           id="g316"><g
             id="g318" /><g
             id="g328"><g
               style="opacity:0.5"
               id="g326"
               clip-path="url(#clipPath322)"><path
                 id="path324"
                 style="fill:#d4befc;fill-opacity:1;fill-rule:nonzero;stroke:none"
                 d="m 730.754,134.77 h -69.707 v 15.953 h 69.707 z" /></g></g></g><g
           transform="translate(523.5605,98.5117)"
           id="g330"><path
             id="path332"
             style="fill:#d4befc;fill-opacity:1;fill-rule:nonzero;stroke:none"
             d="M 0,0 H -143.102 L -179.36,102.984 H -36.259 Z" /></g><g
           id="g334"><g
             id="g336" /><g
             id="g348"><g
               style="opacity:0.5"
               id="g346"
               clip-path="url(#clipPath340)"><g
                 id="g344"
                 transform="translate(523.5605,98.5117)"><path
                   id="path342"
                   style="fill:#d4befc;fill-opacity:1;fill-rule:nonzero;stroke:none"
                   d="M 0,0 H -143.102 L -179.36,102.984 H -36.259 Z" /></g></g></g></g><path
           id="path350"
           style="fill:#d4befc;fill-opacity:1;fill-rule:nonzero;stroke:none"
           d="M 618.753,98.609 H 467.669 v 10.861 h 151.084 z" /><g
           id="g352"><g
             id="g354" /><g
             id="g364"><g
               style="opacity:0.5"
               id="g362"
               clip-path="url(#clipPath358)"><path
                 id="path360"
                 style="fill:#d4befc;fill-opacity:1;fill-rule:nonzero;stroke:none"
                 d="M 618.753,98.609 H 467.669 v 10.861 h 151.084 z" /></g></g></g><g
           transform="translate(516.3789,98.5117)"
           id="g366"><path
             id="path368"
             style="fill:#d4befc;fill-opacity:1;fill-rule:nonzero;stroke:none"
             d="m 0,0 h -143.101 l -36.258,102.984 h 143.1 z" /></g><g
           id="g370"><g
             id="g372" /><g
             id="g384"><g
               style="opacity:0.5"
               id="g382"
               clip-path="url(#clipPath376)"><g
                 id="g380"
                 transform="translate(516.3789,98.5117)"><path
                   id="path378"
                   style="fill:#d4befc;fill-opacity:1;fill-rule:nonzero;stroke:none"
                   d="m 0,0 h -143.101 l -36.258,102.984 z" /></g></g></g></g><g
           id="g386"><g
             id="g388" /><g
             id="g400"><g
               style="opacity:0.5"
               id="g398"
               clip-path="url(#clipPath392)"><g
                 id="g396"
                 transform="translate(440.1641,150.0039)"><path
                   id="path394"
                   style="fill:#ffffff;fill-opacity:1;fill-rule:nonzero;stroke:none"
                   d="m 0,0 c 0,-7.437 -6.028,-13.465 -13.465,-13.465 -7.436,0 -13.464,6.028 -13.464,13.465 0,7.436 6.028,13.464 13.464,13.464 C -6.028,13.464 0,7.436 0,0" /></g></g></g></g><g
           transform="translate(750,96.4873)"
           id="g402"><path
             id="path404"
             style="fill:#fb6a91;fill-opacity:1;fill-rule:nonzero;stroke:none"
             d="m 0,0 h -455.923 c -1.118,0 -2.025,0.905 -2.025,2.023 0,1.119 0.907,2.025 2.025,2.025 H 0 Z" /></g><g
           id="g406"><g
             id="g408" /><g
             id="g944"><g
               style="opacity:0.5"
               id="g942"
               clip-path="url(#clipPath412)"><g
                 id="g556"><g
                   id="g546" /><g
                   id="g554"><g
                     id="g552"
                     clip-path="url(#clipPath416)"><g
                       id="g550"
                       transform="translate(714.082,328.4336)"><path
                         id="path548"
                         style="fill:#d4befc;fill-opacity:1;fill-rule:nonzero;stroke:none"
                         d="m 0,0 -0.932,-8.849 7.269,2.727 z M -2.503,-10.88 -1.052,2.893 8.81,-6.636 Z" /></g></g></g></g><g
                 id="g568"><g
                   id="g558" /><g
                   id="g566"><g
                     id="g564"
                     clip-path="url(#clipPath420)"><g
                       id="g562"
                       transform="translate(676.7334,469.3213)"><path
                         id="path560"
                         style="fill:#d4befc;fill-opacity:1;fill-rule:nonzero;stroke:none"
                         d="m 0,0 -3.387,-8.134 8.579,2.362 z m -5.695,-10.17 5.271,12.66 8.081,-8.983 z" /></g></g></g></g><g
                 id="g580"><g
                   id="g570" /><g
                   id="g578"><g
                     id="g576"
                     clip-path="url(#clipPath424)"><g
                       id="g574"
                       transform="translate(381.9775,370.5376)"><path
                         id="path572"
                         style="fill:#d4befc;fill-opacity:1;fill-rule:nonzero;stroke:none"
                         d="m 0,0 -2.632,-8.5 7.659,1.265 z m -4.566,-10.188 4.094,13.23 7.826,-11.26 z" /></g></g></g></g><g
                 id="g592"><g
                   id="g582" /><g
                   id="g590"><g
                     id="g588"
                     clip-path="url(#clipPath428)"><g
                       id="g586"
                       transform="translate(548.2871,481.4634)"><path
                         id="path584"
                         style="fill:#d4befc;fill-opacity:1;fill-rule:nonzero;stroke:none"
                         d="m 0,0 3.056,-7.137 5.826,6.61 z M 2.655,-9.631 -2.101,1.476 11.723,0.656 Z" /></g></g></g></g><g
                 id="g604"><g
                   id="g594" /><g
                   id="g602"><g
                     id="g600"
                     clip-path="url(#clipPath432)"><g
                       id="g598"
                       transform="translate(696.7725,417.5249)"><path
                         id="path596"
                         style="fill:#d4befc;fill-opacity:1;fill-rule:nonzero;stroke:none"
                         d="M 0,0 11.468,-7.113 18.581,4.354 7.113,11.467 Z m 11.902,-8.971 -13.76,8.536 8.537,13.761 13.76,-8.537 z" /></g></g></g></g><g
                 id="g616"><g
                   id="g606" /><g
                   id="g614"><g
                     id="g612"
                     clip-path="url(#clipPath436)"><g
                       id="g610"
                       transform="translate(466.7676,465.3604)"><path
                         id="path608"
                         style="fill:#d4befc;fill-opacity:1;fill-rule:nonzero;stroke:none"
                         d="M 0,0 11.468,-7.113 18.582,4.354 7.114,11.468 Z m 11.903,-8.971 -13.76,8.536 8.536,13.761 13.76,-8.537 z" /></g></g></g></g><g
                 id="g628"><g
                   id="g618" /><g
                   id="g626"><g
                     id="g624"
                     clip-path="url(#clipPath440)"><g
                       id="g622"
                       transform="translate(738.8818,359.8936)"><path
                         id="path620"
                         style="fill:#d4befc;fill-opacity:1;fill-rule:nonzero;stroke:none"
                         d="m 0,0 -4.196,-0.187 -0.188,4.196 4.197,0.187 z" /></g></g></g></g><g
                 id="g640"><g
                   id="g630" /><g
                   id="g638"><g
                     id="g636"
                     clip-path="url(#clipPath444)"><g
                       id="g634"
                       transform="translate(528.3291,418.3228)"><path
                         id="path632"
                         style="fill:#d4befc;fill-opacity:1;fill-rule:nonzero;stroke:none"
                         d="m 0,0 -11.562,-5.437 -5.436,11.562 11.561,5.437 z" /></g></g></g></g><g
                 id="g652"><g
                   id="g642" /><g
                   id="g650"><g
                     id="g648"
                     clip-path="url(#clipPath448)"><g
                       id="g646"
                       transform="translate(705.668,363.4722)"><path
                         id="path644"
                         style="fill:#d4befc;fill-opacity:1;fill-rule:nonzero;stroke:none"
                         d="M 0,0 -7.778,2.248 -5.53,10.026 2.248,7.779 Z" /></g></g></g></g><g
                 id="g664"><g
                   id="g654" /><g
                   id="g662"><g
                     id="g660"
                     clip-path="url(#clipPath452)"><g
                       id="g658"
                       transform="translate(662.9189,391.1699)"><path
                         id="path656"
                         style="fill:#d4befc;fill-opacity:1;fill-rule:nonzero;stroke:none"
                         d="M 0,0 0.924,-6.685 7.608,-5.761 6.686,0.922 Z M -0.228,-8.205 -1.521,1.152 7.838,2.443 9.129,-6.913 Z" /></g></g></g></g><g
                 id="g676"><g
                   id="g666" /><g
                   id="g674"><g
                     id="g672"
                     clip-path="url(#clipPath456)"><g
                       id="g670"
                       transform="translate(741.9658,294.8237)"><path
                         id="path668"
                         style="fill:#d4befc;fill-opacity:1;fill-rule:nonzero;stroke:none"
                         d="m 0,0 c 0,-1.457 -1.181,-2.638 -2.638,-2.638 -1.457,0 -2.637,1.181 -2.637,2.638 0,1.457 1.18,2.638 2.637,2.638 C -1.181,2.638 0,1.457 0,0" /></g></g></g></g><g
                 id="g688"><g
                   id="g678" /><g
                   id="g686"><g
                     id="g684"
                     clip-path="url(#clipPath460)"><g
                       id="g682"
                       transform="translate(731.2754,469.3213)"><path
                         id="path680"
                         style="fill:#d4befc;fill-opacity:1;fill-rule:nonzero;stroke:none"
                         d="m 0,0 c 0,-1.457 -1.181,-2.638 -2.638,-2.638 -1.457,0 -2.637,1.181 -2.637,2.638 0,1.457 1.18,2.638 2.637,2.638 C -1.181,2.638 0,1.457 0,0" /></g></g></g></g><g
                 id="g700"><g
                   id="g690" /><g
                   id="g698"><g
                     id="g696"
                     clip-path="url(#clipPath464)"><g
                       id="g694"
                       transform="translate(691.3359,278.395)"><path
                         id="path692"
                         style="fill:#d4befc;fill-opacity:1;fill-rule:nonzero;stroke:none"
                         d="m 0,0 c 0,-1.457 -1.182,-2.638 -2.638,-2.638 -1.457,0 -2.638,1.181 -2.638,2.638 0,1.457 1.181,2.638 2.638,2.638 C -1.182,2.638 0,1.457 0,0" /></g></g></g></g><g
                 id="g712"><g
                   id="g702" /><g
                   id="g710"><g
                     id="g708"
                     clip-path="url(#clipPath468)"><g
                       id="g706"
                       transform="translate(277.4268,472.3726)"><path
                         id="path704"
                         style="fill:#d4befc;fill-opacity:1;fill-rule:nonzero;stroke:none"
                         d="m 0,0 -7.778,2.248 2.247,7.778 7.779,-2.248 z" /></g></g></g></g><g
                 id="g724"><g
                   id="g714" /><g
                   id="g722"><g
                     id="g720"
                     clip-path="url(#clipPath472)"><g
                       id="g718"
                       transform="translate(333.0312,392.5459)"><path
                         id="path716"
                         style="fill:#d4befc;fill-opacity:1;fill-rule:nonzero;stroke:none"
                         d="m 0,0 -7.778,2.248 2.247,7.778 7.779,-2.247 z" /></g></g></g></g><g
                 id="g736"><g
                   id="g726" /><g
                   id="g734"><g
                     id="g732"
                     clip-path="url(#clipPath476)"><g
                       id="g730"
                       transform="translate(335.9614,475.6714)"><path
                         id="path728"
                         style="fill:#d4befc;fill-opacity:1;fill-rule:nonzero;stroke:none"
                         d="m 0,0 -3.387,-8.134 8.579,2.362 z m -5.695,-10.169 5.271,12.66 8.081,-8.984 z" /></g></g></g></g><g
                 id="g748"><g
                   id="g738" /><g
                   id="g746"><g
                     id="g744"
                     clip-path="url(#clipPath480)"><g
                       id="g742"
                       transform="translate(436.1025,423.7168)"><path
                         id="path740"
                         style="fill:#d4befc;fill-opacity:1;fill-rule:nonzero;stroke:none"
                         d="m 0,0 c 0,-1.457 -1.181,-2.638 -2.638,-2.638 -1.457,0 -2.638,1.181 -2.638,2.638 0,1.457 1.181,2.638 2.638,2.638 C -1.181,2.638 0,1.457 0,0" /></g></g></g></g><g
                 id="g760"><g
                   id="g750" /><g
                   id="g758"><g
                     id="g756"
                     clip-path="url(#clipPath484)"><g
                       id="g754"
                       transform="translate(282.3125,423.7168)"><path
                         id="path752"
                         style="fill:#d4befc;fill-opacity:1;fill-rule:nonzero;stroke:none"
                         d="m 0,0 c 0,-1.457 -1.181,-2.638 -2.638,-2.638 -1.457,0 -2.638,1.181 -2.638,2.638 0,1.457 1.181,2.638 2.638,2.638 C -1.181,2.638 0,1.457 0,0" /></g></g></g></g><g
                 id="g772"><g
                   id="g762" /><g
                   id="g770"><g
                     id="g768"
                     clip-path="url(#clipPath488)"><g
                       id="g766"
                       transform="translate(383.9297,428.0698)"><path
                         id="path764"
                         style="fill:#d4befc;fill-opacity:1;fill-rule:nonzero;stroke:none"
                         d="M 0,0 0.924,-6.685 7.607,-5.761 6.686,0.922 Z M -0.228,-8.205 -1.521,1.152 7.837,2.443 9.129,-6.913 Z" /></g></g></g></g><g
                 id="g784"><g
                   id="g774" /><g
                   id="g782"><g
                     id="g780"
                     clip-path="url(#clipPath492)"><g
                       id="g778"
                       transform="translate(404.207,478.1621)"><path
                         id="path776"
                         style="fill:#d4befc;fill-opacity:1;fill-rule:nonzero;stroke:none"
                         d="m 0,0 c 0,-1.457 -1.182,-2.638 -2.639,-2.638 -1.457,0 -2.637,1.181 -2.637,2.638 0,1.457 1.18,2.638 2.637,2.638 C -1.182,2.638 0,1.457 0,0" /></g></g></g></g><g
                 id="g796"><g
                   id="g786" /><g
                   id="g794"><g
                     id="g792"
                     clip-path="url(#clipPath496)"><g
                       id="g790"
                       transform="translate(628.0986,423.9795)"><path
                         id="path788"
                         style="fill:#d4befc;fill-opacity:1;fill-rule:nonzero;stroke:none"
                         d="M 0,0 -7.778,2.248 -5.53,10.026 2.248,7.778 Z" /></g></g></g></g><g
                 id="g808"><g
                   id="g798" /><g
                   id="g806"><g
                     id="g804"
                     clip-path="url(#clipPath500)"><g
                       id="g802"
                       transform="translate(562.5449,380.605)"><path
                         id="path800"
                         style="fill:#d4befc;fill-opacity:1;fill-rule:nonzero;stroke:none"
                         d="m 0,0 c 0,-1.457 -1.181,-2.638 -2.638,-2.638 -1.457,0 -2.637,1.181 -2.637,2.638 0,1.457 1.18,2.638 2.637,2.638 C -1.181,2.638 0,1.457 0,0" /></g></g></g></g><g
                 id="g820"><g
                   id="g810" /><g
                   id="g818"><g
                     id="g816"
                     clip-path="url(#clipPath504)"><g
                       id="g814"
                       transform="translate(502.2754,354.3213)"><path
                         id="path812"
                         style="fill:#d4befc;fill-opacity:1;fill-rule:nonzero;stroke:none"
                         d="m 0,0 c 0,-1.457 -1.181,-2.638 -2.638,-2.638 -1.457,0 -2.637,1.181 -2.637,2.638 0,1.457 1.18,2.638 2.637,2.638 C -1.181,2.638 0,1.457 0,0" /></g></g></g></g><g
                 id="g832"><g
                   id="g822" /><g
                   id="g830"><g
                     id="g828"
                     clip-path="url(#clipPath508)"><g
                       id="g826"
                       transform="translate(662.5684,327.3208)"><path
                         id="path824"
                         style="fill:#d4befc;fill-opacity:1;fill-rule:nonzero;stroke:none"
                         d="M 0,0 0.923,-6.685 7.607,-5.762 6.685,0.922 Z M -0.229,-8.206 -1.521,1.152 7.837,2.443 9.128,-6.913 Z" /></g></g></g></g><g
                 id="g844"><g
                   id="g834" /><g
                   id="g842"><g
                     id="g840"
                     clip-path="url(#clipPath512)"><g
                       id="g838"
                       transform="translate(716.6152,261.9443)"><path
                         id="path836"
                         style="fill:#d4befc;fill-opacity:1;fill-rule:nonzero;stroke:none"
                         d="M 0,0 0.924,-6.685 7.608,-5.761 6.686,0.922 Z M -0.228,-8.206 -1.521,1.152 7.837,2.443 9.129,-6.913 Z" /></g></g></g></g><g
                 id="g856"><g
                   id="g846" /><g
                   id="g854"><g
                     id="g852"
                     clip-path="url(#clipPath516)"><g
                       id="g850"
                       transform="translate(621.5293,481.5674)"><path
                         id="path848"
                         style="fill:#d4befc;fill-opacity:1;fill-rule:nonzero;stroke:none"
                         d="M 0,0 0.924,-6.685 7.607,-5.762 6.686,0.922 Z M -0.228,-8.206 -1.521,1.152 7.837,2.443 9.129,-6.913 Z" /></g></g></g></g><g
                 id="g868"><g
                   id="g858" /><g
                   id="g866"><g
                     id="g864"
                     clip-path="url(#clipPath520)"><g
                       id="g862"
                       transform="translate(330.3589,342.7085)"><path
                         id="path860"
                         style="fill:#d4befc;fill-opacity:1;fill-rule:nonzero;stroke:none"
                         d="M 0,0 0.924,-6.685 7.608,-5.761 6.686,0.922 Z M -0.228,-8.206 -1.521,1.152 7.837,2.443 9.129,-6.913 Z" /></g></g></g></g><g
                 id="g880"><g
                   id="g870" /><g
                   id="g878"><g
                     id="g876"
                     clip-path="url(#clipPath524)"><g
                       id="g874"
                       transform="translate(471.3955,399.0322)"><path
                         id="path872"
                         style="fill:#d4befc;fill-opacity:1;fill-rule:nonzero;stroke:none"
                         d="M 0,0 0.923,-6.685 7.607,-5.761 6.685,0.922 Z M -0.229,-8.205 -1.521,1.152 7.837,2.443 9.128,-6.913 Z" /></g></g></g></g><g
                 id="g892"><g
                   id="g882" /><g
                   id="g890"><g
                     id="g888"
                     clip-path="url(#clipPath528)"><g
                       id="g886"
                       transform="translate(407.3379,320.9463)"><path
                         id="path884"
                         style="fill:#d4befc;fill-opacity:1;fill-rule:nonzero;stroke:none"
                         d="m 0,0 -11.562,-5.437 -5.436,11.562 11.561,5.437 z" /></g></g></g></g><g
                 id="g904"><g
                   id="g894" /><g
                   id="g902"><g
                     id="g900"
                     clip-path="url(#clipPath532)"><g
                       id="g898"
                       transform="translate(291.6445,375.335)"><path
                         id="path896"
                         style="fill:#d4befc;fill-opacity:1;fill-rule:nonzero;stroke:none"
                         d="m 0,0 -6.478,-3.046 -3.046,6.478 6.478,3.046 z" /></g></g></g></g><g
                 id="g916"><g
                   id="g906" /><g
                   id="g914"><g
                     id="g912"
                     clip-path="url(#clipPath536)"><g
                       id="g910"
                       transform="translate(585.8506,422.4204)"><path
                         id="path908"
                         style="fill:#d4befc;fill-opacity:1;fill-rule:nonzero;stroke:none"
                         d="m 0,0 -5.78,-2.718 -2.719,5.781 5.781,2.718 z" /></g></g></g></g><g
                 id="g928"><g
                   id="g918" /><g
                   id="g926"><g
                     id="g924"
                     clip-path="url(#clipPath540)"><g
                       id="g922"
                       transform="translate(699.835,235.541)"><path
                         id="path920"
                         style="fill:#d4befc;fill-opacity:1;fill-rule:nonzero;stroke:none"
                         d="m 0,0 -11.562,-5.437 -5.436,11.562 11.561,5.437 z" /></g></g></g></g><g
                 id="g940"><g
                   id="g930" /><g
                   id="g938"><g
                     id="g936"
                     clip-path="url(#clipPath544)"><g
                       id="g934"
                       transform="translate(439.8525,385.0459)"><path
                         id="path932"
                         style="fill:#d4befc;fill-opacity:1;fill-rule:nonzero;stroke:none"
                         d="m 0,0 -5.781,-2.718 -2.718,5.781 5.78,2.718 z" /></g></g></g></g></g></g></g></g></g><text
       id="text950"
       style="font-variant:normal;font-weight:600;font-stretch:normal;font-size:7.80249977px;font-family:'Montserrat SemiBold';-inkscape-font-specification:Montserrat-SemiBold;writing-mode:lr-tb;fill:#fc7ca3;fill-opacity:1;fill-rule:nonzero;stroke:none"
       transform="matrix(1,0,0,-0.99974367,81.7925,449.1436)"><tspan
         id="tspan946"
         y="0"
         x="0 5.5553799 12.125085 19.576473 24.889975 30.734047 37.054073">COMPANY</tspan><tspan
         id="tspan948"
         y="9.3629999"
         x="0 4.5722651 11.14197 17.165501">LOGO</tspan></text>
<g
       id="g952"><g
         clip-path="url(#clipPath958)"
         id="g954"><g
           transform="translate(69.4229,455.3364)"
           id="g960"><path
             id="path962"
             style="fill:#fc7ca3;fill-opacity:1;fill-rule:nonzero;stroke:none"
             d="m 0,0 -13.407,-7.741 c -0.474,-0.273 -1.058,-0.273 -1.532,0 l -13.305,7.682 c -1.021,0.589 -1.021,2.063 0,2.653 l 13.408,7.74 c 0.474,0.274 1.058,0.274 1.531,0 L 0,2.653 C 1.021,2.063 1.021,0.59 0,0" /></g><g
           transform="translate(51.9746,427.8213)"
           id="g964"><path
             id="path966"
             style="fill:#fc7ca3;fill-opacity:1;fill-rule:nonzero;stroke:none"
             d="m 0,0 -13.408,7.741 c -0.474,0.274 -0.766,0.779 -0.766,1.326 V 24.43 c 0,1.179 1.277,1.916 2.298,1.327 L 1.531,18.016 C 2.005,17.742 2.297,17.237 2.297,16.689 V 1.326 C 2.297,0.147 1.021,-0.589 0,0" /></g><g
           transform="translate(72.0352,435.562)"
           id="g968"><path
             id="path970"
             style="fill:#fc7ca3;fill-opacity:1;fill-rule:nonzero;stroke:none"
             d="m 0,0 -13.408,-7.741 c -1.021,-0.589 -2.297,0.148 -2.297,1.326 V 8.949 c 0,0.547 0.292,1.052 0.766,1.326 l 13.407,7.741 c 1.022,0.589 2.298,-0.147 2.298,-1.327 V 1.327 C 0.766,0.779 0.474,0.274 0,0" /></g><g
           transform="translate(685.7744,437.5225)"
           id="g972"><path
             id="path974"
             style="fill:#fc7ca3;fill-opacity:1;fill-rule:nonzero;stroke:none"
             d="m 0,0 h -32.845 c -4.745,0 -8.593,3.846 -8.593,8.59 0,4.744 3.848,8.591 8.593,8.591 H 0 c 4.745,0 8.593,-3.847 8.593,-8.591 C 8.593,3.846 4.745,0 0,0" /></g></g></g><text
       id="text980"
       style="font-variant:normal;font-weight:600;font-stretch:normal;font-size:7.80249977px;font-family:'Montserrat SemiBold';-inkscape-font-specification:Montserrat-SemiBold;writing-mode:lr-tb;fill:#fc7ca3;fill-opacity:1;fill-rule:nonzero;stroke:none"
       transform="matrix(1,0,0,-0.99974367,652.4946,443.3657)"><tspan
         id="tspan976"
         y="0"
         x="0 4.9077725 7.39677 13.4203 19.740326 21.893814 28.049988">SIGN UP</tspan><tspan
         id="tspan978"
         y="0"
         x="-230.49365 -224.64958 -218.71188 -212.14217 -206.08743 -155.46481 -149.14479 -143.99513 -135.18611 -302.03479 -295.71475 -289.14505 -281.69366 -84.352829 -78.797447 -72.227745 -65.907715 -61.4837 -55.717651 -50.107655">ABOUTNEWSHOMECONTACT</tspan></text>
<text
       id="text992"
       style="font-variant:normal;font-weight:600;font-stretch:normal;font-size:12.00300026px;font-family:'Montserrat SemiBold';-inkscape-font-specification:Montserrat-SemiBold;writing-mode:lr-tb;fill:#bed0f8;fill-opacity:1;fill-rule:nonzero;stroke:none"
       transform="matrix(1,0,0,-0.99975006,26.8262,223.9287)"><tspan
         id="tspan982"
         y="0"
         x="0 7.1297822 14.871717 19.792948 27.258814 39.897972 43.2108 46.679668 54.913727 61.095268 69.26931 81.90847 85.221298 93.467361 101.2093 104.67816 112.4201 117.46136 120.77419 126.95573 130.42459 135.51387 138.82669 146.11252 158.81049 166.27635 171.48566 174.4144">Lorem ipsum dolor sit amet, </tspan><tspan
         id="tspan984"
         y="14.4036"
         x="0 6.8777189 14.619654 22.841709 29.023254 36.48912 43.546883 48.420101 55.885967 60.975239 69.149284 76.61515 81.65641 84.969238 92.315071 100.56113 104.03 112.26406 115.73293 121.91447 128.88821 132.35709 140.63795 148.96803 152.28085 159.74672 163.21559 166.68446 171.89377 174.82249 178.13533 184.31686 191.78273 200.02879">consectetuer adipiscing elit, sed </tspan><tspan
         id="tspan986"
         y="28.807199"
         x="0 8.2460613 11.714928 19.00075 31.639908 34.952736 43.234806 50.976742 59.198795 67.372841 80.012001 92.531128 99.468864 102.78169 111.00375 114.47261 122.70667 130.92873 134.24155 141.70741 149.88145 153.35033 159.53188 172.23105 179.97298 188.21904">diam nonummy nibh euismod </tspan><tspan
         id="tspan988"
         y="43.2108"
         x="0 5.089272 8.5581388 16.840208 23.813951 27.28282 35.528881 43.702923 51.924976 57.014252 60.32708 68.501122 73.590393 76.903221 80.372086 87.717926 95.459862 100.38109 107.84695 115.31282 120.40209 123.71492 131.96098 139.70291 143.17178 150.91371 155.83495 163.30081">tincidunt ut laoreet dolore </tspan><tspan
         id="tspan990"
         y="57.614399"
         x="0 12.639159 19.984995 28.315077 36.537132 43.822952 47.13578 54.4216 57.890469 61.359337 69.593391 77.767441 85.053261 97.692413 101.00524 108.47111 113.41634 120.70217 125.79144 129.10426 135.86076 143.60269 147.07156 155.24561 160.33487 168.48491 175.77074 180.98003 183.90877">magna aliquam erat volutpat. </tspan></text>
<g
       id="g994"><g
         clip-path="url(#clipPath1000)"
         id="g996"><g
           transform="translate(89.1045,104.0635)"
           id="g1002"><path
             id="path1004"
             style="fill:#fc7ca3;fill-opacity:1;fill-rule:nonzero;stroke:none"
             d="m 0,0 h -50.067 c -6.744,0 -12.211,5.468 -12.211,12.212 0,6.744 5.467,12.211 12.211,12.211 H 0 c 6.744,0 12.211,-5.467 12.211,-12.211 C 12.211,5.468 6.744,0 0,0" /></g></g></g><text
       id="text1008"
       style="font-variant:normal;font-weight:600;font-stretch:normal;font-size:7.80249977px;font-family:'Montserrat SemiBold';-inkscape-font-specification:Montserrat-SemiBold;writing-mode:lr-tb;fill:#ffffff;fill-opacity:1;fill-rule:nonzero;stroke:none"
       transform="matrix(1,0,0,-0.99974367,38.5039,112.6045)"><tspan
         id="tspan1006"
         y="0"
         x="0 5.7036276 10.931302 16.775375 23.22024 25.37373 32.825119 39.394821 45.09845">READ MORE</tspan></text>
<text
       id="text1012"
       style="font-variant:normal;font-weight:bold;font-stretch:normal;font-size:34px;font-family:Montserrat;-inkscape-font-specification:Montserrat-Bold;writing-mode:lr-tb;fill:#fc7ca3;fill-opacity:1;fill-rule:nonzero;stroke:none"
       transform="matrix(1,0,0,-1,26.8262,295.0503)"><tspan
         id="tspan1010"
         y="0"
         x="0 24.412001 53.108002 80.580002 100.402 126.106 150.78999 171.802 181.424 208.216">CONTACT US</tspan></text>
<text
       id="text1016"
       style="font-variant:normal;font-weight:bold;font-stretch:normal;font-size:22.40159988px;font-family:Montserrat;-inkscape-font-specification:Montserrat-Bold;writing-mode:lr-tb;fill:#bed0f8;fill-opacity:1;fill-rule:nonzero;stroke:none"
       transform="matrix(1,0,0,-1,26.8262,266.0508)"><tspan
         id="tspan1014"
         y="0"
         x="0 13.664976 30.824602 48.925095 67.428818 74.776543 92.877037 110.14867 116.48832 131.87822 148.81383 166.08546">LANDING PAGE</tspan></text>
<g
       id="g1018"><g
         clip-path="url(#clipPath1024)"
         id="g1020"><g
           transform="translate(385.1035,34.5342)"
           id="g1026"><path
             id="path1028"
             style="fill:#1d262d;fill-opacity:1;fill-rule:nonzero;stroke:none"
             d="m 0,0 c -0.432,-0.443 -0.803,-0.931 -1.108,-1.453 l -0.465,0.241 c -0.067,0.298 -0.349,0.502 -0.658,0.466 -0.332,-0.039 -0.569,-0.339 -0.53,-0.67 0.039,-0.331 0.339,-0.567 0.67,-0.528 0.066,0.007 0.127,0.025 0.184,0.051 l 0.451,-0.234 C -1.707,-2.681 -1.889,-3.265 -1.995,-3.87 l 0.746,-0.132 c 0.23,1.306 0.85,2.507 1.792,3.473 z" /></g><g
           transform="translate(390.5918,36.8359)"
           id="g1030"><path
             id="path1032"
             style="fill:#1d262d;fill-opacity:1;fill-rule:nonzero;stroke:none"
             d="m 0,0 c -0.171,0 -0.341,-0.006 -0.51,-0.017 l -0.073,0.626 c 0.187,0.15 0.296,0.389 0.266,0.645 C -0.364,1.647 -0.72,1.928 -1.113,1.882 -1.506,1.836 -1.787,1.479 -1.741,1.087 -1.711,0.833 -1.552,0.625 -1.336,0.523 l 0.073,-0.625 c -0.714,-0.116 -1.403,-0.332 -2.059,-0.645 l 0.327,-0.684 c 0.933,0.447 1.941,0.673 2.995,0.673 0.496,0 0.993,-0.053 1.475,-0.157 l 0.161,0.74 C 1.101,-0.059 0.551,0 0,0" /></g><g
           transform="translate(397.1943,34.2891)"
           id="g1034"><path
             id="path1036"
             style="fill:#1d262d;fill-opacity:1;fill-rule:nonzero;stroke:none"
             d="M 0,0 C 0.331,0.04 0.566,0.342 0.525,0.672 0.484,1.003 0.184,1.238 -0.146,1.198 -0.456,1.16 -0.683,0.894 -0.677,0.589 L -1.093,0.226 c -0.418,0.43 -0.889,0.813 -1.408,1.139 L -2.904,0.724 c 1.133,-0.715 2.02,-1.726 2.563,-2.925 l 0.691,0.312 c -0.251,0.554 -0.568,1.073 -0.943,1.545 L -0.19,0.007 C -0.13,-0.005 -0.065,-0.008 0,0" /></g><g
           transform="translate(390.0439,26.6279)"
           id="g1038"><path
             id="path1040"
             style="fill:#1d262d;fill-opacity:1;fill-rule:nonzero;stroke:none"
             d="m 0,0 c -0.386,-0.023 -0.774,-0.035 -1.157,-0.035 -0.88,0 -1.733,0.06 -2.479,0.18 -0.389,0.061 -0.845,0.154 -1.269,0.292 1.046,-1.862 3.069,-3.125 5.387,-3.125 2.856,0 5.263,1.916 5.951,4.503 C 5.751,1.366 4.927,0.99 3.974,0.692 2.795,0.324 1.42,0.085 0,0" /></g><g
           transform="translate(393.1699,29.7139)"
           id="g1042"><path
             id="path1044"
             style="fill:#1d262d;fill-opacity:1;fill-rule:nonzero;stroke:none"
             d="M 0,0 C -0.75,0 -1.36,0.609 -1.36,1.359 -1.36,2.11 -0.75,2.721 0,2.721 0.75,2.721 1.36,2.11 1.36,1.359 1.36,0.609 0.75,0 0,0 m -4.737,-0.908 c -1.021,0 -1.85,0.829 -1.85,1.849 0,1.02 0.829,1.85 1.85,1.85 1.019,0 1.849,-0.83 1.849,-1.85 0,-1.02 -0.83,-1.849 -1.849,-1.849 m 2.159,6.514 c -3.353,0 -6.08,-2.667 -6.08,-5.943 0,-0.426 0.047,-0.85 0.137,-1.262 0.674,-0.482 2.707,-0.889 5.348,-0.73 2.879,0.173 5.297,0.957 6.672,2.158 C 3.493,0.024 3.479,0.219 3.454,0.411 3.073,3.373 0.48,5.606 -2.578,5.606" /></g><g
           transform="translate(406.5947,33.4531)"
           id="g1046"><path
             id="path1048"
             style="fill:#1d262d;fill-opacity:1;fill-rule:nonzero;stroke:none"
             d="M 0,0 C -0.294,0.116 -0.805,0.309 -1.382,0.237 -1.933,0.169 -2.226,-0.104 -2.226,-0.77 v -0.866 h 2.228 v -1.717 h -2.228 v -5.455 h -1.931 v 5.455 h -1.34 v 1.717 h 1.34 v 0.889 c 0,1.68 0.895,2.782 2.568,2.782 0.643,0 1.157,-0.121 1.59,-0.307 z" /></g><g
           transform="translate(411.2979,30.1211)"
           id="g1050"><path
             id="path1052"
             style="fill:#1d262d;fill-opacity:1;fill-rule:nonzero;stroke:none"
             d="m 0,0 c -0.177,0.029 -0.357,0.046 -0.526,0.046 -0.896,0 -1.51,-0.548 -1.51,-1.613 v -3.909 h -1.932 v 7.172 h 1.872 V 0.912 c 0.452,0.674 1.141,0.977 2.022,0.977 0.414,0 0.847,-0.127 1.094,-0.336 z" /></g><g
           transform="translate(413.8506,28.9092)"
           id="g1054"><path
             id="path1056"
             style="fill:#1d262d;fill-opacity:1;fill-rule:nonzero;stroke:none"
             d="M 0,0 H 3.175 C 2.998,0.918 2.442,1.436 1.613,1.436 0.703,1.436 0.171,0.888 0,0 m 5.114,-0.666 c 0,-0.223 -0.014,-0.489 -0.037,-0.651 h -5.084 c 0.207,-1.037 0.933,-1.489 1.843,-1.489 0.621,0 1.295,0.252 1.812,0.689 L 4.781,-3.36 c -0.814,-0.748 -1.85,-1.088 -3.056,-1.088 -2.199,0 -3.723,1.495 -3.723,3.752 0,2.258 1.48,3.797 3.626,3.797 2.065,0 3.479,-1.533 3.486,-3.767" /></g><g
           transform="translate(421.5039,28.9092)"
           id="g1058"><path
             id="path1060"
             style="fill:#1d262d;fill-opacity:1;fill-rule:nonzero;stroke:none"
             d="M 0,0 H 3.175 C 2.998,0.918 2.442,1.436 1.613,1.436 0.703,1.436 0.17,0.888 0,0 m 5.114,-0.666 c 0,-0.223 -0.014,-0.489 -0.037,-0.651 h -5.084 c 0.207,-1.037 0.932,-1.489 1.843,-1.489 0.621,0 1.295,0.252 1.813,0.689 L 4.781,-3.36 c -0.814,-0.748 -1.85,-1.088 -3.056,-1.088 -2.199,0 -3.723,1.495 -3.723,3.752 0,2.258 1.48,3.797 3.626,3.797 2.065,0 3.479,-1.533 3.486,-3.767" /></g><g
           transform="translate(429.2871,28.2354)"
           id="g1062"><path
             id="path1064"
             style="fill:#1d262d;fill-opacity:1;fill-rule:nonzero;stroke:none"
             d="m 0,0 c 0,-1.133 0.747,-1.977 1.843,-1.977 1.139,0 1.85,0.881 1.85,1.977 0,1.096 -0.711,1.977 -1.85,1.977 C 0.747,1.977 0,1.133 0,0 m 5.677,0 c 0,-2.154 -1.495,-3.774 -3.471,-3.774 -0.963,0 -1.644,0.377 -2.109,0.932 V -6.55 H -1.828 V 3.582 H 0.06 V 2.79 C 0.525,3.375 1.214,3.774 2.198,3.774 4.182,3.774 5.677,2.154 5.677,0" /></g><path
           id="path1066"
           style="fill:#1d262d;fill-opacity:1;fill-rule:nonzero;stroke:none"
           d="m 437.809,24.646 h -1.932 v 7.172 h 1.932 z m 0.258,9.518 c 0,-0.696 -0.54,-1.228 -1.236,-1.228 -0.695,0 -1.228,0.532 -1.228,1.228 0,0.695 0.533,1.243 1.228,1.243 0.696,0 1.236,-0.548 1.236,-1.243" /><g
           transform="translate(441.0322,29.2637)"
           id="g1068"><path
             id="path1070"
             style="fill:#1d262d;fill-opacity:1;fill-rule:nonzero;stroke:none"
             d="M 0,0 2.701,2.554 H 5.07 L 1.591,-0.821 5.092,-4.618 H 2.716 L 0,-1.717 V -4.618 H -1.932 V 6.04 L 0,6.04 Z" /></g><g
           transform="translate(309.4126,26.6299)"
           id="g1072"><path
             id="path1074"
             style="fill:#1d262d;fill-opacity:1;fill-rule:nonzero;stroke:none"
             d="m 0,0 v 3.207 c -0.396,0.616 -1.245,1.144 -2.124,1.144 -1.421,0 -2.271,-1.173 -2.271,-2.741 0,-1.566 0.85,-2.723 2.271,-2.723 0.879,0 1.728,0.497 2.124,1.113 m 0,-1.919 v 1.055 c -0.527,-0.718 -1.392,-1.231 -2.388,-1.231 -1.845,0 -3.149,1.407 -3.149,3.705 0,2.257 1.289,3.721 3.149,3.721 0.952,0 1.817,-0.469 2.388,-1.245 v 3.765 h 1.099 v -9.77 z" /></g><g
           transform="translate(315.4033,31.0527)"
           id="g1076"><path
             id="path1078"
             style="fill:#1d262d;fill-opacity:1;fill-rule:nonzero;stroke:none"
             d="M 0,0 C -1.509,0 -2.256,-1.274 -2.314,-2.357 H 2.329 C 2.314,-1.303 1.611,0 0,0 m -3.471,-2.798 c 0,2.051 1.464,3.706 3.486,3.706 2.138,0 3.398,-1.67 3.398,-3.793 v -0.279 h -5.727 c 0.087,-1.332 1.025,-2.445 2.548,-2.445 0.806,0 1.626,0.322 2.183,0.893 L 2.944,-5.434 C 2.241,-6.137 1.289,-6.518 0.132,-6.518 c -2.095,0 -3.603,1.509 -3.603,3.72" /></g><g
           transform="translate(319.6069,25.6484)"
           id="g1080"><path
             id="path1082"
             style="fill:#1d262d;fill-opacity:1;fill-rule:nonzero;stroke:none"
             d="M 0,0 0.571,0.791 C 1.04,0.248 1.934,-0.221 2.9,-0.221 c 1.084,0 1.67,0.514 1.67,1.217 0,1.713 -4.38,0.658 -4.38,3.281 0,1.098 0.953,2.035 2.637,2.035 1.201,0 2.051,-0.454 2.622,-1.025 L 4.936,4.525 C 4.512,5.038 3.735,5.419 2.827,5.419 1.86,5.419 1.26,4.936 1.26,4.306 1.26,2.754 5.639,3.778 5.639,1.025 5.639,-0.162 4.687,-1.113 2.856,-1.113 1.699,-1.113 0.718,-0.762 0,0" /></g><path
           id="path1084"
           style="fill:#1d262d;fill-opacity:1;fill-rule:nonzero;stroke:none"
           d="m 326.667,31.785 h 1.099 v -7.074 h -1.099 z m -0.19,1.743 c 0,0.41 0.337,0.747 0.732,0.747 0.411,0 0.747,-0.337 0.747,-0.747 0,-0.41 -0.336,-0.731 -0.747,-0.731 -0.395,0 -0.732,0.321 -0.732,0.731" /><g
           transform="translate(334.7085,26.7471)"
           id="g1086"><path
             id="path1088"
             style="fill:#1d262d;fill-opacity:1;fill-rule:nonzero;stroke:none"
             d="m 0,0 v 3.09 c -0.381,0.616 -1.23,1.143 -2.109,1.143 -1.421,0 -2.27,-1.129 -2.27,-2.695 0,-1.554 0.849,-2.695 2.27,-2.695 0.879,0 1.728,0.541 2.109,1.157 m -5.126,-3.853 0.556,0.821 c 0.586,-0.703 1.289,-0.967 2.3,-0.967 1.172,0 2.27,0.571 2.27,2.124 v 1.011 c -0.512,-0.718 -1.376,-1.26 -2.373,-1.26 -1.845,0 -3.149,1.377 -3.149,3.662 0,2.27 1.289,3.676 3.149,3.676 0.952,0 1.802,-0.469 2.373,-1.245 v 1.069 h 1.099 v -6.869 c 0,-2.344 -1.641,-3.076 -3.369,-3.076 -1.201,0 -2.022,0.234 -2.856,1.054" /></g><g
           transform="translate(342.4131,24.7109)"
           id="g1090"><path
             id="path1092"
             style="fill:#1d262d;fill-opacity:1;fill-rule:nonzero;stroke:none"
             d="M 0,0 V 4.629 C 0,5.873 -0.629,6.27 -1.582,6.27 -2.446,6.27 -3.267,5.742 -3.676,5.17 V 0 h -1.099 v 7.074 h 1.099 V 6.049 c 0.498,0.586 1.464,1.201 2.519,1.201 1.479,0 2.256,-0.747 2.256,-2.284 L 1.099,0 Z" /></g><g
           transform="translate(348.4043,31.0527)"
           id="g1094"><path
             id="path1096"
             style="fill:#1d262d;fill-opacity:1;fill-rule:nonzero;stroke:none"
             d="M 0,0 C -1.509,0 -2.256,-1.274 -2.314,-2.357 H 2.329 C 2.314,-1.303 1.611,0 0,0 m -3.472,-2.798 c 0,2.051 1.465,3.706 3.487,3.706 2.138,0 3.398,-1.67 3.398,-3.793 v -0.279 h -5.727 c 0.087,-1.332 1.025,-2.445 2.548,-2.445 0.806,0 1.626,0.322 2.183,0.893 L 2.944,-5.434 C 2.241,-6.137 1.289,-6.518 0.132,-6.518 c -2.095,0 -3.604,1.509 -3.604,3.72" /></g><g
           transform="translate(358.3501,26.6299)"
           id="g1098"><path
             id="path1100"
             style="fill:#1d262d;fill-opacity:1;fill-rule:nonzero;stroke:none"
             d="m 0,0 v 3.207 c -0.396,0.616 -1.245,1.144 -2.124,1.144 -1.421,0 -2.271,-1.173 -2.271,-2.741 0,-1.566 0.85,-2.723 2.271,-2.723 0.879,0 1.728,0.497 2.124,1.113 m 0,-1.919 v 1.055 c -0.527,-0.718 -1.392,-1.231 -2.388,-1.231 -1.845,0 -3.149,1.407 -3.149,3.705 0,2.257 1.289,3.721 3.149,3.721 0.952,0 1.817,-0.469 2.388,-1.245 v 3.765 h 1.099 v -9.77 z" /></g><g
           transform="translate(367.8999,25.5166)"
           id="g1102"><path
             id="path1104"
             style="fill:#1d262d;fill-opacity:1;fill-rule:nonzero;stroke:none"
             d="m 0,0 c 1.436,0 2.285,1.157 2.285,2.724 0,1.567 -0.849,2.74 -2.285,2.74 -0.864,0 -1.729,-0.527 -2.109,-1.144 V 1.113 C -1.729,0.497 -0.864,0 0,0 m -3.208,-0.806 v 9.77 h 1.099 V 5.199 c 0.571,0.777 1.421,1.245 2.387,1.245 1.846,0 3.15,-1.464 3.15,-3.72 0,-2.299 -1.304,-3.705 -3.15,-3.705 -0.996,0 -1.86,0.512 -2.387,1.23 v -1.055 z" /></g><g
           transform="translate(372.5283,22.9385)"
           id="g1106"><path
             id="path1108"
             style="fill:#1d262d;fill-opacity:1;fill-rule:nonzero;stroke:none"
             d="m 0,0 c 0.161,-0.073 0.425,-0.117 0.601,-0.117 0.483,0 0.805,0.161 1.055,0.747 l 0.469,1.069 -2.96,7.148 h 1.187 l 2.358,-5.8 2.344,5.8 H 6.255 L 2.71,0.337 C 2.285,-0.688 1.567,-1.084 0.63,-1.099 c -0.234,0 -0.601,0.044 -0.805,0.103 z" /></g></g></g></g></svg>